<svg xmlns="http://www.w3.org/2000/svg" width="64.793" height="63.748" viewBox="0 0 64.793 63.748">
  <path id="conhecimento" d="M60.612,24.109v-2.09a3.22,3.22,0,0,0-.982-2.321,3.254,3.254,0,0,0-2.362-.888,77.732,77.732,0,0,0-11.494,1.172l-1.38.27a12.081,12.081,0,0,0-23.975-.532v.543a77.078,77.078,0,0,0-12.9-1.453,3.251,3.251,0,0,0-3.342,3.155l0,.086v2.09A5.227,5.227,0,0,0,0,29.261V58.522a5.226,5.226,0,0,0,5.226,5.226H59.567a5.226,5.226,0,0,0,5.226-5.226V29.261a5.226,5.226,0,0,0-4.181-5.152m-38.1-4.1a10.044,10.044,0,0,1,8.746-8.456,10.708,10.708,0,0,1,1.139-.063,9.873,9.873,0,0,1,6.648,2.551,9.991,9.991,0,0,1,.791,14.106,10.16,10.16,0,0,1-1.376,1.277,7.107,7.107,0,0,0-2.875,5.663A1.494,1.494,0,0,1,34.1,36.576h-.657V29.261a1.045,1.045,0,0,0-.241-.67l-3.8-4.556h5.695l-1.871,1.871a1.045,1.045,0,0,0,1.473,1.473l3.659-3.657a1.045,1.045,0,0,0-.732-1.777H27.171a1.046,1.046,0,0,0-.806,1.714l4.985,5.976v6.94h-.659a1.5,1.5,0,0,1-1.494-1.5v-.009a7.138,7.138,0,0,0-2.884-5.654,9.938,9.938,0,0,1-3.8-9.4M5.226,61.656A3.135,3.135,0,0,1,2.09,58.522V29.261a3.134,3.134,0,0,1,2.09-2.947V55.283a3.263,3.263,0,0,0,3.136,3.239,71.808,71.808,0,0,1,19.343,3.134Zm29.261-20.9H30.306a1.046,1.046,0,0,0,0,2.091h1.045V61.071A68.981,68.981,0,0,0,7.378,56.433a1.15,1.15,0,0,1-1.107-1.15V22.051A1.159,1.159,0,0,1,7.44,20.9l.031,0a74.855,74.855,0,0,1,12.9,1.483,11.935,11.935,0,0,0,4.713,8.686,5.063,5.063,0,0,1,2.091,4.012,3.581,3.581,0,0,0,3.521,3.585H34.1a3.594,3.594,0,0,0,3.585-3.605V35.05a5.035,5.035,0,0,1,2.09-3.971,11.973,11.973,0,0,0,4.683-8.695l1.735-.344A75.318,75.318,0,0,1,57.321,20.9a1.094,1.094,0,0,1,.846.335,1.128,1.128,0,0,1,.344.824V55.283a1.149,1.149,0,0,1-1.1,1.15,69.141,69.141,0,0,0-23.973,4.63V42.847h1.045a1.046,1.046,0,0,0,0-2.091M62.7,58.522a3.136,3.136,0,0,1-3.136,3.134H38.123a71.815,71.815,0,0,1,19.354-3.134,3.26,3.26,0,0,0,3.134-3.239v-29A3.134,3.134,0,0,1,62.7,29.261ZM9.41,26.048a1.045,1.045,0,0,1,1.113-.977c1.411.094,2.842.23,4.232.4a1.048,1.048,0,0,1-.125,2.091h-.125c-1.359-.167-2.748-.292-4.128-.386l.009-.011a1.046,1.046,0,0,1-.977-1.113m0,4.295a1.045,1.045,0,0,1,1.113-.977,76.958,76.958,0,0,1,7.817.92,1.049,1.049,0,1,1-.178,2.09h-.177a74.97,74.97,0,0,0-7.608-.888l.009-.031a1.046,1.046,0,0,1-.977-1.113M9.4,37.695l0-.044a1.045,1.045,0,0,1,1.105-.98A72.764,72.764,0,0,1,27.473,39.8a1.047,1.047,0,1,1-.627,2,70.519,70.519,0,0,0-16.468-3A1.045,1.045,0,0,1,9.4,37.695M28.043,46.02a1.045,1.045,0,0,1-1.186.881,70.53,70.53,0,0,0-16.47-3.009,1.047,1.047,0,1,1,.136-2.09,72.687,72.687,0,0,1,16.961,3.134,1.048,1.048,0,0,1,.559,1.083m.167,5.505a1.093,1.093,0,0,1-1.365.727,70.431,70.431,0,0,0-16.459-3.134,1.048,1.048,0,0,1,.136-2.091,72.785,72.785,0,0,1,16.961,3.136,1.09,1.09,0,0,1,.727,1.363M36.42,41.1a1.056,1.056,0,0,1,.888-1.2,72.672,72.672,0,0,1,16.961-3.136,1.047,1.047,0,1,1,.134,2.09,70.518,70.518,0,0,0-16.468,3.011,1.126,1.126,0,0,1-.315,0v.125a1.056,1.056,0,0,1-1.2-.888m0,5.036a1.057,1.057,0,0,1,.888-1.2A72.669,72.669,0,0,1,54.269,41.8a1.047,1.047,0,1,1,.134,2.09,70.448,70.448,0,0,0-16.468,3.063,1.126,1.126,0,0,1-.315,0v.072a1.056,1.056,0,0,1-1.2-.888m0,5.226a1.056,1.056,0,0,1,.888-1.2,72.78,72.78,0,0,1,16.961-3.011,1.048,1.048,0,1,1,.134,2.091,70.515,70.515,0,0,0-16.468,3.009,1,1,0,0,1-.315,0,1.056,1.056,0,0,1-1.2-.888M31.351,5.224V1.045a1.046,1.046,0,0,1,2.091,0V5.224a1.046,1.046,0,1,1-2.091,0m7.685,3.8a1.044,1.044,0,0,1,.007-1.477L42.01,4.6a1.045,1.045,0,0,1,1.473,1.473L40.527,9.03a1.064,1.064,0,0,1-1.492-.007M21.319,6.061a1.045,1.045,0,0,1,1.473-1.473l2.947,2.967A1.046,1.046,0,0,1,24.265,9.03Z" fill="#040506"/>
</svg>
