<svg xmlns="http://www.w3.org/2000/svg" width="62.602" height="74.341" viewBox="0 0 62.602 74.341">
  <path id="empatia" d="M62.251,29.45a1.2,1.2,0,0,0-1.69,0l-5.805,5.805a1.19,1.19,0,0,0-.333,1.039,8.166,8.166,0,0,1-2.259,7.093l-4.644,4.644-5.757-5.755a1.2,1.2,0,0,0-1.69,1.69l9.243,9.243a1.467,1.467,0,0,1,.349,1.2,2.96,2.96,0,0,1-2.481,2.481,1.465,1.465,0,0,1-1.194-.351,1.2,1.2,0,0,0-1.692,1.69c.64.64.418,1.942-.484,2.846s-2.2,1.124-2.844.482a1.2,1.2,0,0,0-1.69,1.69c.64.64.419,1.942-.482,2.844a2.824,2.824,0,0,1-1.65.833,1.465,1.465,0,0,1-1.194-.349,1.2,1.2,0,0,0-1.692,1.69c.64.64.419,1.942-.484,2.844a2.819,2.819,0,0,1-1.648.833,1.458,1.458,0,0,1-1.194-.349l-1.85-1.85a4.731,4.731,0,0,0-3.372-7.405,4.738,4.738,0,0,0-4.768-6.013,4.733,4.733,0,0,0-4.718-5.114,4.653,4.653,0,0,0,.037-.6,4.7,4.7,0,0,0-1.385-3.353v0a4.869,4.869,0,0,0-6.708,0l-.756.756L6.3,46.892A8.161,8.161,0,0,1,4.043,39.8a.832.832,0,0,0,0-.1,1.09,1.09,0,0,0-.009-.245,1.171,1.171,0,0,0-.04-.215,1.2,1.2,0,0,0-.094-.2,1.122,1.122,0,0,0-.134-.2.768.768,0,0,0-.053-.081L2.04,37.089A1.2,1.2,0,1,0,.35,38.782l1.267,1.267A10.538,10.538,0,0,0,4.608,48.58L5.725,49.7,4.59,50.835a4.747,4.747,0,0,0,0,6.708,4.668,4.668,0,0,0,3.636,1.378,4.735,4.735,0,0,0,1.38,3.64,4.812,4.812,0,0,0,3.6,1.391,4.731,4.731,0,0,0,5.472,5,4.743,4.743,0,0,0,8.093,3.23l.688-.69,1.788,1.79a3.757,3.757,0,0,0,2.678,1.061,4.4,4.4,0,0,0,.464-.024A5.182,5.182,0,0,0,35.469,72.8a5.11,5.11,0,0,0,1.541-3.473c.129,0,.259-.011.39-.024a5.189,5.189,0,0,0,3.086-1.519A5.11,5.11,0,0,0,42.029,64.3a5.289,5.289,0,0,0,5.016-5.016c.131,0,.259-.009.392-.022a5.344,5.344,0,0,0,4.606-4.608A3.818,3.818,0,0,0,51,51.519l-1.8-1.8,4.644-4.646a10.555,10.555,0,0,0,3.011-8.549l5.386-5.388a1.2,1.2,0,0,0,0-1.69M6.28,55.853a2.355,2.355,0,0,1,0-3.327l1.977-1.977v0h0l1.6-1.6a2.352,2.352,0,0,1,3.326,3.327L9.606,55.853a2.356,2.356,0,0,1-3.326,0M11.3,60.871a2.38,2.38,0,0,1,0-3.327l3.267-3.267a2.421,2.421,0,0,1,3.32.007,2.384,2.384,0,0,1-.092,3.418L14.62,60.873a2.353,2.353,0,0,1-3.322,0m8.286,5.073a2.36,2.36,0,0,1-3.316-.009,2.392,2.392,0,0,1-.048-3.281l.066-.064c.018-.018.039-.037.055-.057l3.14-3.14a2.353,2.353,0,1,1,3.327,3.327l-.971.971h0l-1.779,1.781,0,0-.465.464-.006.006m2.163,4.545a2.363,2.363,0,0,1,0-3.326v0h0l1.779-1.781a2.352,2.352,0,0,1,3.326,3.327l-1.779,1.781a2.356,2.356,0,0,1-3.327,0M9.889,20.969a1.2,1.2,0,1,1,1.69-1.69l4.335,4.334a4.7,4.7,0,0,1,2.522-1.655c8.607-2.2,15.857-3.706,23.666-1.4l4.782-4.782a1.2,1.2,0,0,1,1.69,1.69l-5.292,5.292a1.2,1.2,0,0,1-1.214.294c-7.488-2.422-14.272-1.023-23.04,1.223a2.355,2.355,0,0,0-1.7,2.862c.423,1.65,2.481,1.683,3.1,1.659l6.982-.313a1.193,1.193,0,0,1,.9.349l8.847,8.847a1.2,1.2,0,1,1-1.69,1.69L27,30.9l-6.454.287c-2.807.109-4.95-1.2-5.527-3.454a4.679,4.679,0,0,1-.1-1.736Zm18.5-4.838a1.192,1.192,0,0,0,1.69,0l6.385-6.385A5.711,5.711,0,0,0,29.232.973,5.711,5.711,0,0,0,22,9.747Zm-4.7-12.769a3.324,3.324,0,0,1,4.7,0,1.2,1.2,0,0,0,1.69,0,3.4,3.4,0,0,1,4.692,0,3.323,3.323,0,0,1,0,4.694l-5.54,5.538-5.54-5.538a3.325,3.325,0,0,1,0-4.694" transform="translate(0 0)" fill="#040506"/>
</svg>
