<svg xmlns="http://www.w3.org/2000/svg" width="54.008" height="66.961" viewBox="0 0 54.008 66.961">
  <path id="etica" d="M3.712,64.61A3.343,3.343,0,0,0,9.58,65.622l2.735-3.644a3.962,3.962,0,0,1,2.674-1.784h20.1a5.444,5.444,0,0,0,3.727-1.626L52.728,44.4a4.481,4.481,0,0,0-6.072-6.576l-9.063,7.586a4.7,4.7,0,0,0-3.837-1.941H22.4a1.01,1.01,0,0,1-.642-.2A8.89,8.89,0,0,0,16.1,41.245c-9.408,0-13.133,5.262-14.483,6.221A5.57,5.57,0,0,0,.249,53.039Zm-.5-15.578c1.115-.793,4.507-5.557,12.9-5.557a6.582,6.582,0,0,1,4.236,1.518,3.245,3.245,0,0,0,2.062.714H33.757a2.231,2.231,0,1,1,.184,4.459H21.677a1.115,1.115,0,1,0,0,2.229H33.941a4.454,4.454,0,0,0,4.464-4.44q0-.121-.006-.243v-.05l9.7-8.117a2.24,2.24,0,0,1,3.156.272l.009.009a2.276,2.276,0,0,1-.116,3.022L37.233,57.006a3.215,3.215,0,0,1-2.178.958H14.989c-2.213,0-3.855,1.869-4.459,2.674L7.8,64.287a1.117,1.117,0,0,1-1.953-.327L2.382,52.391a3.346,3.346,0,0,1,.826-3.359M25.1,38.458a3.341,3.341,0,0,0,4.51,0c1.328-1.208,2.6-2.354,3.826-3.451,9.4-8.424,15.613-14,15.613-22.025C49.049,5.581,44.144,0,37.645,0a12.192,12.192,0,0,0-9.454,4.67,1.088,1.088,0,0,1-1.672,0A12.194,12.194,0,0,0,17.066,0C10.564,0,5.66,5.581,5.66,12.982c0,8.025,6.212,13.6,15.613,22.029Q23.1,36.655,25.1,38.458M44.653,20.1a14.553,14.553,0,0,0-1.2-3.633,12.144,12.144,0,0,1-1.069-3.188,1.123,1.123,0,0,1,.235-.968c.572-.682,2.055-1.155,4.05-1.313a13.79,13.79,0,0,1,.151,1.987A13.422,13.422,0,0,1,44.653,20.1m1.5-11.292c-1.972.193-4.115.725-5.239,2.071a3.353,3.353,0,0,0-.732,2.731,14.224,14.224,0,0,0,1.236,3.756,9.221,9.221,0,0,1,1.036,5.772q-1.065,1.283-2.356,2.6a8.02,8.02,0,0,0-1.8-4.4c-3.09-3.787-9.015-4.619-11.036-4.619-1.895,0-2.805,1.273-3.609,2.393-1.122,1.563-2.281,3.18-6.423,3.18a6.147,6.147,0,0,0-4.278,1.655,31.74,31.74,0,0,1-1.985-2.479,19.241,19.241,0,0,0,.188-2.52c0-3.37.649-3.473,2.218-3.721a6.688,6.688,0,0,0,5.426-3.508c1.319-2.205,1.847-5.183,1.58-8.873a9.949,9.949,0,0,1,2.509,1.4c-1.083,4.591-.635,7.608,1.37,8.938a4.132,4.132,0,0,0,2.272.817,3.725,3.725,0,0,0,2.849-1.878c.458-.611.758-.98,1.071-.98a7.794,7.794,0,0,0,5.2-2.853,9.073,9.073,0,0,0,2.285-6.05,9.079,9.079,0,0,1,8.22,6.561m-18.8-1.514h0A3.317,3.317,0,0,0,29.9,6.1,10.481,10.481,0,0,1,35.7,2.45a6.844,6.844,0,0,1-1.725,4.372,5.687,5.687,0,0,1-3.528,2.1,3.631,3.631,0,0,0-2.853,1.873c-.806,1.072-.971,1.3-2.1.543-.945-.627-1.179-2.549-.708-5.262l.028.029a3.308,3.308,0,0,0,2.548,1.192M17.066,2.229a9.453,9.453,0,0,1,1.019.072c.259,2.627.2,5.93-1.2,8.272a4.562,4.562,0,0,1-3.861,2.452c-2.161.34-3.846.947-4.074,4.957a12.489,12.489,0,0,1-1.056-5c0-6.127,3.944-10.749,9.175-10.749m-2.6,23.353a3.906,3.906,0,0,1,2.763-1.059c5.288,0,7.061-2.474,8.235-4.111.78-1.083,1.107-1.462,1.8-1.462,2.027,0,6.968.929,9.307,3.8a6.246,6.246,0,0,1,1.2,5.29c-1.744,1.657-3.69,3.407-5.816,5.314Q30.111,35,28.11,36.808a1.113,1.113,0,0,1-1.51,0q-2-1.815-3.839-3.454c-3.2-2.873-6.006-5.393-8.3-7.771" transform="translate(0)" fill="#040506"/>
</svg>
