<svg xmlns="http://www.w3.org/2000/svg" width="107" height="1018.5" viewBox="0 0 107 1018.5">
  <g id="Grupo_64" data-name="Grupo 64" transform="translate(-812 -1403.5)">
    <line id="Linha_1" data-name="Linha 1" y2="997" transform="translate(865 1403.5)" fill="none" stroke="#000" stroke-width="3"/>
    <g id="Elipse_8" data-name="Elipse 8" transform="translate(812 2315)" fill="#fff" stroke="#000" stroke-width="3">
      <circle cx="53.5" cy="53.5" r="53.5" stroke="none"/>
      <circle cx="53.5" cy="53.5" r="52" fill="none"/>
    </g>
    <path id="humildade" d="M49.954,13.049a1.082,1.082,0,0,0-.53-.151H46.275a7.56,7.56,0,1,0-10.691,0H20.07a7.56,7.56,0,1,0-10.691,0H7.166A7.175,7.175,0,0,0,0,20.064V34.947a4.236,4.236,0,0,0,4.232,4.231,4.158,4.158,0,0,0,2.01-.532V62.657a1.11,1.11,0,1,0,2.22,0V22.5a1.11,1.11,0,0,0-2.22,0V34.947a2.011,2.011,0,0,1-4.023,0V20.064a4.952,4.952,0,0,1,4.946-4.946H28.2a7.132,7.132,0,0,0-1.994,4.946v.868h-.964a4.264,4.264,0,0,0-4.258,4.258V62.657a1.11,1.11,0,1,0,2.22,0V25.19a2.04,2.04,0,0,1,2.038-2.038h.964V34.947a4.236,4.236,0,0,0,4.232,4.231,4.158,4.158,0,0,0,2.01-.532V62.657a1.11,1.11,0,1,0,2.22,0V22.5a1.11,1.11,0,0,0-2.22,0V34.947a2.011,2.011,0,0,1-4.023,0V20.064a4.951,4.951,0,0,1,4.946-4.946H48.488a4.951,4.951,0,0,1,4.944,4.946V34.947a2.011,2.011,0,0,1-4.023,0V22.5a1.11,1.11,0,0,0-2.22,0V62.657a1.11,1.11,0,1,0,2.22,0V38.646a4.171,4.171,0,0,0,2.012.532,4.236,4.236,0,0,0,4.231-4.231V20.064a7.178,7.178,0,0,0-5.7-7.015M14.724,12.9a5.339,5.339,0,1,1,5.338-5.34,5.345,5.345,0,0,1-5.338,5.34m26.2,0a5.339,5.339,0,1,1,5.34-5.34,5.345,5.345,0,0,1-5.34,5.34M15.835,38.73V62.657a1.11,1.11,0,1,1-2.22,0V38.73a1.11,1.11,0,1,1,2.22,0m26.2,0V62.657a1.11,1.11,0,1,1-2.22,0V38.73a1.11,1.11,0,1,1,2.22,0" transform="translate(838 2337)" fill="#040506"/>
    <g id="Elipse_7" data-name="Elipse 7" transform="translate(812 2108)" fill="#fff" stroke="#000" stroke-width="3">
      <circle cx="53.5" cy="53.5" r="53.5" stroke="none"/>
      <circle cx="53.5" cy="53.5" r="52" fill="none"/>
    </g>
    <path id="etica" d="M3.712,64.61A3.343,3.343,0,0,0,9.58,65.622l2.735-3.644a3.962,3.962,0,0,1,2.674-1.784h20.1a5.444,5.444,0,0,0,3.727-1.626L52.728,44.4a4.481,4.481,0,0,0-6.072-6.576l-9.063,7.586a4.7,4.7,0,0,0-3.837-1.941H22.4a1.01,1.01,0,0,1-.642-.2A8.89,8.89,0,0,0,16.1,41.245c-9.408,0-13.133,5.262-14.483,6.221A5.57,5.57,0,0,0,.249,53.039Zm-.5-15.578c1.115-.793,4.507-5.557,12.9-5.557a6.582,6.582,0,0,1,4.236,1.518,3.245,3.245,0,0,0,2.062.714H33.757a2.231,2.231,0,1,1,.184,4.459H21.677a1.115,1.115,0,1,0,0,2.229H33.941a4.454,4.454,0,0,0,4.464-4.44q0-.121-.006-.243v-.05l9.7-8.117a2.24,2.24,0,0,1,3.156.272l.009.009a2.276,2.276,0,0,1-.116,3.022L37.233,57.006a3.215,3.215,0,0,1-2.178.958H14.989c-2.213,0-3.855,1.869-4.459,2.674L7.8,64.287a1.117,1.117,0,0,1-1.953-.327L2.382,52.391a3.346,3.346,0,0,1,.826-3.359M25.1,38.458a3.341,3.341,0,0,0,4.51,0c1.328-1.208,2.6-2.354,3.826-3.451,9.4-8.424,15.613-14,15.613-22.025C49.049,5.581,44.144,0,37.645,0a12.192,12.192,0,0,0-9.454,4.67,1.088,1.088,0,0,1-1.672,0A12.194,12.194,0,0,0,17.066,0C10.564,0,5.66,5.581,5.66,12.982c0,8.025,6.212,13.6,15.613,22.029Q23.1,36.655,25.1,38.458M44.653,20.1a14.553,14.553,0,0,0-1.2-3.633,12.144,12.144,0,0,1-1.069-3.188,1.123,1.123,0,0,1,.235-.968c.572-.682,2.055-1.155,4.05-1.313a13.79,13.79,0,0,1,.151,1.987A13.422,13.422,0,0,1,44.653,20.1m1.5-11.292c-1.972.193-4.115.725-5.239,2.071a3.353,3.353,0,0,0-.732,2.731,14.224,14.224,0,0,0,1.236,3.756,9.221,9.221,0,0,1,1.036,5.772q-1.065,1.283-2.356,2.6a8.02,8.02,0,0,0-1.8-4.4c-3.09-3.787-9.015-4.619-11.036-4.619-1.895,0-2.805,1.273-3.609,2.393-1.122,1.563-2.281,3.18-6.423,3.18a6.147,6.147,0,0,0-4.278,1.655,31.74,31.74,0,0,1-1.985-2.479,19.241,19.241,0,0,0,.188-2.52c0-3.37.649-3.473,2.218-3.721a6.688,6.688,0,0,0,5.426-3.508c1.319-2.205,1.847-5.183,1.58-8.873a9.949,9.949,0,0,1,2.509,1.4c-1.083,4.591-.635,7.608,1.37,8.938a4.132,4.132,0,0,0,2.272.817,3.725,3.725,0,0,0,2.849-1.878c.458-.611.758-.98,1.071-.98a7.794,7.794,0,0,0,5.2-2.853,9.073,9.073,0,0,0,2.285-6.05,9.079,9.079,0,0,1,8.22,6.561m-18.8-1.514h0A3.317,3.317,0,0,0,29.9,6.1,10.481,10.481,0,0,1,35.7,2.45a6.844,6.844,0,0,1-1.725,4.372,5.687,5.687,0,0,1-3.528,2.1,3.631,3.631,0,0,0-2.853,1.873c-.806,1.072-.971,1.3-2.1.543-.945-.627-1.179-2.549-.708-5.262l.028.029a3.308,3.308,0,0,0,2.548,1.192M17.066,2.229a9.453,9.453,0,0,1,1.019.072c.259,2.627.2,5.93-1.2,8.272a4.562,4.562,0,0,1-3.861,2.452c-2.161.34-3.846.947-4.074,4.957a12.489,12.489,0,0,1-1.056-5c0-6.127,3.944-10.749,9.175-10.749m-2.6,23.353a3.906,3.906,0,0,1,2.763-1.059c5.288,0,7.061-2.474,8.235-4.111.78-1.083,1.107-1.462,1.8-1.462,2.027,0,6.968.929,9.307,3.8a6.246,6.246,0,0,1,1.2,5.29c-1.744,1.657-3.69,3.407-5.816,5.314Q30.111,35,28.11,36.808a1.113,1.113,0,0,1-1.51,0q-2-1.815-3.839-3.454c-3.2-2.873-6.006-5.393-8.3-7.771" transform="translate(838 2128)" fill="#040506"/>
    <g id="Elipse_6" data-name="Elipse 6" transform="translate(812 1877)" fill="#fff" stroke="#000" stroke-width="3">
      <circle cx="53.5" cy="53.5" r="53.5" stroke="none"/>
      <circle cx="53.5" cy="53.5" r="52" fill="none"/>
    </g>
    <path id="empatia" d="M62.251,29.45a1.2,1.2,0,0,0-1.69,0l-5.805,5.805a1.19,1.19,0,0,0-.333,1.039,8.166,8.166,0,0,1-2.259,7.093l-4.644,4.644-5.757-5.755a1.2,1.2,0,0,0-1.69,1.69l9.243,9.243a1.467,1.467,0,0,1,.349,1.2,2.96,2.96,0,0,1-2.481,2.481,1.465,1.465,0,0,1-1.194-.351,1.2,1.2,0,0,0-1.692,1.69c.64.64.418,1.942-.484,2.846s-2.2,1.124-2.844.482a1.2,1.2,0,0,0-1.69,1.69c.64.64.419,1.942-.482,2.844a2.824,2.824,0,0,1-1.65.833,1.465,1.465,0,0,1-1.194-.349,1.2,1.2,0,0,0-1.692,1.69c.64.64.419,1.942-.484,2.844a2.819,2.819,0,0,1-1.648.833,1.458,1.458,0,0,1-1.194-.349l-1.85-1.85a4.731,4.731,0,0,0-3.372-7.405,4.738,4.738,0,0,0-4.768-6.013,4.733,4.733,0,0,0-4.718-5.114,4.653,4.653,0,0,0,.037-.6,4.7,4.7,0,0,0-1.385-3.353v0a4.869,4.869,0,0,0-6.708,0l-.756.756L6.3,46.892A8.161,8.161,0,0,1,4.043,39.8a.832.832,0,0,0,0-.1,1.09,1.09,0,0,0-.009-.245,1.171,1.171,0,0,0-.04-.215,1.2,1.2,0,0,0-.094-.2,1.122,1.122,0,0,0-.134-.2.768.768,0,0,0-.053-.081L2.04,37.089A1.2,1.2,0,1,0,.35,38.782l1.267,1.267A10.538,10.538,0,0,0,4.608,48.58L5.725,49.7,4.59,50.835a4.747,4.747,0,0,0,0,6.708,4.668,4.668,0,0,0,3.636,1.378,4.735,4.735,0,0,0,1.38,3.64,4.812,4.812,0,0,0,3.6,1.391,4.731,4.731,0,0,0,5.472,5,4.743,4.743,0,0,0,8.093,3.23l.688-.69,1.788,1.79a3.757,3.757,0,0,0,2.678,1.061,4.4,4.4,0,0,0,.464-.024A5.182,5.182,0,0,0,35.469,72.8a5.11,5.11,0,0,0,1.541-3.473c.129,0,.259-.011.39-.024a5.189,5.189,0,0,0,3.086-1.519A5.11,5.11,0,0,0,42.029,64.3a5.289,5.289,0,0,0,5.016-5.016c.131,0,.259-.009.392-.022a5.344,5.344,0,0,0,4.606-4.608A3.818,3.818,0,0,0,51,51.519l-1.8-1.8,4.644-4.646a10.555,10.555,0,0,0,3.011-8.549l5.386-5.388a1.2,1.2,0,0,0,0-1.69M6.28,55.853a2.355,2.355,0,0,1,0-3.327l1.977-1.977v0h0l1.6-1.6a2.352,2.352,0,0,1,3.326,3.327L9.606,55.853a2.356,2.356,0,0,1-3.326,0M11.3,60.871a2.38,2.38,0,0,1,0-3.327l3.267-3.267a2.421,2.421,0,0,1,3.32.007,2.384,2.384,0,0,1-.092,3.418L14.62,60.873a2.353,2.353,0,0,1-3.322,0m8.286,5.073a2.36,2.36,0,0,1-3.316-.009,2.392,2.392,0,0,1-.048-3.281l.066-.064c.018-.018.039-.037.055-.057l3.14-3.14a2.353,2.353,0,1,1,3.327,3.327l-.971.971h0l-1.779,1.781,0,0-.465.464-.006.006m2.163,4.545a2.363,2.363,0,0,1,0-3.326v0h0l1.779-1.781a2.352,2.352,0,0,1,3.326,3.327l-1.779,1.781a2.356,2.356,0,0,1-3.327,0M9.889,20.969a1.2,1.2,0,1,1,1.69-1.69l4.335,4.334a4.7,4.7,0,0,1,2.522-1.655c8.607-2.2,15.857-3.706,23.666-1.4l4.782-4.782a1.2,1.2,0,0,1,1.69,1.69l-5.292,5.292a1.2,1.2,0,0,1-1.214.294c-7.488-2.422-14.272-1.023-23.04,1.223a2.355,2.355,0,0,0-1.7,2.862c.423,1.65,2.481,1.683,3.1,1.659l6.982-.313a1.193,1.193,0,0,1,.9.349l8.847,8.847a1.2,1.2,0,1,1-1.69,1.69L27,30.9l-6.454.287c-2.807.109-4.95-1.2-5.527-3.454a4.679,4.679,0,0,1-.1-1.736Zm18.5-4.838a1.192,1.192,0,0,0,1.69,0l6.385-6.385A5.711,5.711,0,0,0,29.232.973,5.711,5.711,0,0,0,22,9.747Zm-4.7-12.769a3.324,3.324,0,0,1,4.7,0,1.2,1.2,0,0,0,1.69,0,3.4,3.4,0,0,1,4.692,0,3.323,3.323,0,0,1,0,4.694l-5.54,5.538-5.54-5.538a3.325,3.325,0,0,1,0-4.694" transform="translate(834 1893)" fill="#040506"/>
    <g id="Elipse_5" data-name="Elipse 5" transform="translate(812 1682)" fill="#fff" stroke="#000" stroke-width="3">
      <circle cx="53.5" cy="53.5" r="53.5" stroke="none"/>
      <circle cx="53.5" cy="53.5" r="52" fill="none"/>
    </g>
    <path id="conhecimento" d="M60.612,24.109v-2.09a3.22,3.22,0,0,0-.982-2.321,3.254,3.254,0,0,0-2.362-.888,77.732,77.732,0,0,0-11.494,1.172l-1.38.27a12.081,12.081,0,0,0-23.975-.532v.543a77.078,77.078,0,0,0-12.9-1.453,3.251,3.251,0,0,0-3.342,3.155l0,.086v2.09A5.227,5.227,0,0,0,0,29.261V58.522a5.226,5.226,0,0,0,5.226,5.226H59.567a5.226,5.226,0,0,0,5.226-5.226V29.261a5.226,5.226,0,0,0-4.181-5.152m-38.1-4.1a10.044,10.044,0,0,1,8.746-8.456,10.708,10.708,0,0,1,1.139-.063,9.873,9.873,0,0,1,6.648,2.551,9.991,9.991,0,0,1,.791,14.106,10.16,10.16,0,0,1-1.376,1.277,7.107,7.107,0,0,0-2.875,5.663A1.494,1.494,0,0,1,34.1,36.576h-.657V29.261a1.045,1.045,0,0,0-.241-.67l-3.8-4.556h5.695l-1.871,1.871a1.045,1.045,0,0,0,1.473,1.473l3.659-3.657a1.045,1.045,0,0,0-.732-1.777H27.171a1.046,1.046,0,0,0-.806,1.714l4.985,5.976v6.94h-.659a1.5,1.5,0,0,1-1.494-1.5v-.009a7.138,7.138,0,0,0-2.884-5.654,9.938,9.938,0,0,1-3.8-9.4M5.226,61.656A3.135,3.135,0,0,1,2.09,58.522V29.261a3.134,3.134,0,0,1,2.09-2.947V55.283a3.263,3.263,0,0,0,3.136,3.239,71.808,71.808,0,0,1,19.343,3.134Zm29.261-20.9H30.306a1.046,1.046,0,0,0,0,2.091h1.045V61.071A68.981,68.981,0,0,0,7.378,56.433a1.15,1.15,0,0,1-1.107-1.15V22.051A1.159,1.159,0,0,1,7.44,20.9l.031,0a74.855,74.855,0,0,1,12.9,1.483,11.935,11.935,0,0,0,4.713,8.686,5.063,5.063,0,0,1,2.091,4.012,3.581,3.581,0,0,0,3.521,3.585H34.1a3.594,3.594,0,0,0,3.585-3.605V35.05a5.035,5.035,0,0,1,2.09-3.971,11.973,11.973,0,0,0,4.683-8.695l1.735-.344A75.318,75.318,0,0,1,57.321,20.9a1.094,1.094,0,0,1,.846.335,1.128,1.128,0,0,1,.344.824V55.283a1.149,1.149,0,0,1-1.1,1.15,69.141,69.141,0,0,0-23.973,4.63V42.847h1.045a1.046,1.046,0,0,0,0-2.091M62.7,58.522a3.136,3.136,0,0,1-3.136,3.134H38.123a71.815,71.815,0,0,1,19.354-3.134,3.26,3.26,0,0,0,3.134-3.239v-29A3.134,3.134,0,0,1,62.7,29.261ZM9.41,26.048a1.045,1.045,0,0,1,1.113-.977c1.411.094,2.842.23,4.232.4a1.048,1.048,0,0,1-.125,2.091h-.125c-1.359-.167-2.748-.292-4.128-.386l.009-.011a1.046,1.046,0,0,1-.977-1.113m0,4.295a1.045,1.045,0,0,1,1.113-.977,76.958,76.958,0,0,1,7.817.92,1.049,1.049,0,1,1-.178,2.09h-.177a74.97,74.97,0,0,0-7.608-.888l.009-.031a1.046,1.046,0,0,1-.977-1.113M9.4,37.695l0-.044a1.045,1.045,0,0,1,1.105-.98A72.764,72.764,0,0,1,27.473,39.8a1.047,1.047,0,1,1-.627,2,70.519,70.519,0,0,0-16.468-3A1.045,1.045,0,0,1,9.4,37.695M28.043,46.02a1.045,1.045,0,0,1-1.186.881,70.53,70.53,0,0,0-16.47-3.009,1.047,1.047,0,1,1,.136-2.09,72.687,72.687,0,0,1,16.961,3.134,1.048,1.048,0,0,1,.559,1.083m.167,5.505a1.093,1.093,0,0,1-1.365.727,70.431,70.431,0,0,0-16.459-3.134,1.048,1.048,0,0,1,.136-2.091,72.785,72.785,0,0,1,16.961,3.136,1.09,1.09,0,0,1,.727,1.363M36.42,41.1a1.056,1.056,0,0,1,.888-1.2,72.672,72.672,0,0,1,16.961-3.136,1.047,1.047,0,1,1,.134,2.09,70.518,70.518,0,0,0-16.468,3.011,1.126,1.126,0,0,1-.315,0v.125a1.056,1.056,0,0,1-1.2-.888m0,5.036a1.057,1.057,0,0,1,.888-1.2A72.669,72.669,0,0,1,54.269,41.8a1.047,1.047,0,1,1,.134,2.09,70.448,70.448,0,0,0-16.468,3.063,1.126,1.126,0,0,1-.315,0v.072a1.056,1.056,0,0,1-1.2-.888m0,5.226a1.056,1.056,0,0,1,.888-1.2,72.78,72.78,0,0,1,16.961-3.011,1.048,1.048,0,1,1,.134,2.091,70.515,70.515,0,0,0-16.468,3.009,1,1,0,0,1-.315,0,1.056,1.056,0,0,1-1.2-.888M31.351,5.224V1.045a1.046,1.046,0,0,1,2.091,0V5.224a1.046,1.046,0,1,1-2.091,0m7.685,3.8a1.044,1.044,0,0,1,.007-1.477L42.01,4.6a1.045,1.045,0,0,1,1.473,1.473L40.527,9.03a1.064,1.064,0,0,1-1.492-.007M21.319,6.061a1.045,1.045,0,0,1,1.473-1.473l2.947,2.967A1.046,1.046,0,0,1,24.265,9.03Z" transform="translate(833 1704)" fill="#040506"/>
  </g>
</svg>
