<svg xmlns="http://www.w3.org/2000/svg" width="55.653" height="63.768" viewBox="0 0 55.653 63.768">
  <path id="humildade" d="M49.954,13.049a1.082,1.082,0,0,0-.53-.151H46.275a7.56,7.56,0,1,0-10.691,0H20.07a7.56,7.56,0,1,0-10.691,0H7.166A7.175,7.175,0,0,0,0,20.064V34.947a4.236,4.236,0,0,0,4.232,4.231,4.158,4.158,0,0,0,2.01-.532V62.657a1.11,1.11,0,1,0,2.22,0V22.5a1.11,1.11,0,0,0-2.22,0V34.947a2.011,2.011,0,0,1-4.023,0V20.064a4.952,4.952,0,0,1,4.946-4.946H28.2a7.132,7.132,0,0,0-1.994,4.946v.868h-.964a4.264,4.264,0,0,0-4.258,4.258V62.657a1.11,1.11,0,1,0,2.22,0V25.19a2.04,2.04,0,0,1,2.038-2.038h.964V34.947a4.236,4.236,0,0,0,4.232,4.231,4.158,4.158,0,0,0,2.01-.532V62.657a1.11,1.11,0,1,0,2.22,0V22.5a1.11,1.11,0,0,0-2.22,0V34.947a2.011,2.011,0,0,1-4.023,0V20.064a4.951,4.951,0,0,1,4.946-4.946H48.488a4.951,4.951,0,0,1,4.944,4.946V34.947a2.011,2.011,0,0,1-4.023,0V22.5a1.11,1.11,0,0,0-2.22,0V62.657a1.11,1.11,0,1,0,2.22,0V38.646a4.171,4.171,0,0,0,2.012.532,4.236,4.236,0,0,0,4.231-4.231V20.064a7.178,7.178,0,0,0-5.7-7.015M14.724,12.9a5.339,5.339,0,1,1,5.338-5.34,5.345,5.345,0,0,1-5.338,5.34m26.2,0a5.339,5.339,0,1,1,5.34-5.34,5.345,5.345,0,0,1-5.34,5.34M15.835,38.73V62.657a1.11,1.11,0,1,1-2.22,0V38.73a1.11,1.11,0,1,1,2.22,0m26.2,0V62.657a1.11,1.11,0,1,1-2.22,0V38.73a1.11,1.11,0,1,1,2.22,0" fill="#040506"/>
</svg>
