<svg xmlns="http://www.w3.org/2000/svg" width="69" height="69" viewBox="0 0 69 69">
  <g id="bt_whatsapp" data-name="bt whatsapp" transform="translate(-1623 -889)">
    <circle id="Elipse_1" data-name="Elipse 1" cx="34.5" cy="34.5" r="34.5" transform="translate(1623 889)" fill="#00b114"/>
    <path id="whatsapp-brands" d="M24.929,36.261A14.534,14.534,0,0,0,2.062,53.794L0,61.32,7.7,59.3a14.485,14.485,0,0,0,6.944,1.767h.007a14.437,14.437,0,0,0,10.275-24.8ZM14.654,58.617A12.055,12.055,0,0,1,8.5,56.935l-.438-.262-4.568,1.2,1.217-4.457-.288-.458a12.1,12.1,0,1,1,22.442-6.42A12.211,12.211,0,0,1,14.654,58.617Zm6.623-9.045c-.36-.183-2.147-1.06-2.48-1.178s-.576-.183-.818.183S17.042,49.756,16.826,50s-.425.275-.785.092a9.882,9.882,0,0,1-4.941-4.32c-.373-.641.373-.6,1.067-1.983a.673.673,0,0,0-.033-.635c-.092-.183-.818-1.97-1.119-2.7-.295-.707-.6-.609-.818-.622s-.452-.013-.694-.013a1.345,1.345,0,0,0-.969.452,4.079,4.079,0,0,0-1.27,3.03,7.112,7.112,0,0,0,1.479,3.757,16.223,16.223,0,0,0,6.2,5.484c2.3.995,3.207,1.08,4.359.91a3.718,3.718,0,0,0,2.448-1.728A3.036,3.036,0,0,0,21.964,50C21.879,49.841,21.637,49.749,21.277,49.573Z" transform="translate(1643 877)" fill="#fff"/>
  </g>
</svg>
