<svg xmlns="http://www.w3.org/2000/svg" width="79.551" height="63.235" viewBox="0 0 79.551 63.235">
   <linearGradient id="linear-gradient" x1="0.5" x2="0.5" y2="1" gradientUnits="objectBoundingBox">
      <stop offset="0" stop-color="#ff0"/>
      <stop offset="1" stop-color="#cc640a"/>
    </linearGradient>
  <path id="imobiliario" d="M21.614,33.043a1.624,1.624,0,0,0,1.623-1.621V24.809a3.431,3.431,0,0,0-3.428-3.428H16.654a3.433,3.433,0,0,0-3.429,3.428v6.612a1.625,1.625,0,0,0,1.625,1.621Zm-6.578-8.233a1.619,1.619,0,0,1,1.618-1.616H19.81a1.619,1.619,0,0,1,1.616,1.616v6.423H15.036ZM42.57,33.043a1.623,1.623,0,0,0,1.621-1.621V24.809a3.431,3.431,0,0,0-3.428-3.428H37.607a3.431,3.431,0,0,0-3.428,3.428v6.612A1.623,1.623,0,0,0,35.8,33.043Zm-6.578-8.233a1.618,1.618,0,0,1,1.616-1.616h3.156a1.618,1.618,0,0,1,1.616,1.616v6.423H35.992Zm-8.9-7.309a.906.906,0,1,1,0-1.812h3.239a.906.906,0,0,1,0,1.812Zm36.28,37.488a.9.9,0,0,1,0-.694l6.171-14.706a.909.909,0,0,1,.837-.556.9.9,0,0,1,.349.072.9.9,0,0,1,.485,1.186L65.043,55a.9.9,0,0,1-.835.556h0a.9.9,0,0,1-.349-.072.905.905,0,0,1-.488-.492m3.29-12.566A3.657,3.657,0,1,0,63.026,46.5a3.877,3.877,0,0,0,3.633-4.076m-3.633,2.262a2.316,2.316,0,1,1,1.821-2.262,2.107,2.107,0,0,1-1.821,2.262m8.335,11.866a4.1,4.1,0,1,0-3.631-4.074,3.877,3.877,0,0,0,3.631,4.074m0-6.337a2.316,2.316,0,1,1-1.819,2.262,2.107,2.107,0,0,1,1.819-2.262m7.285-5.226a.906.906,0,0,0,.9-.9V35.509a2.234,2.234,0,0,0-1.158-1.957L68.271,27.98a2.22,2.22,0,0,0-2.155,0l-.562.309-.141-.138a17.182,17.182,0,0,0-10.656-4.8l-3.527-.271V18.118l2.074.92a1.606,1.606,0,0,0,.654.14,1.623,1.623,0,0,0,1.484-.965l1.836-4.138a1.627,1.627,0,0,0-.826-2.14L44.089,6.454a.907.907,0,0,0-.735,1.657l12.189,5.4-1.68,3.791L29.078,6.316a.93.93,0,0,0-.371-.077.91.91,0,0,0-.366.077L3.554,17.306,1.872,13.514l26-11.523a2.063,2.063,0,0,1,1.682,0L38.82,6.1a.871.871,0,0,0,.364.077.9.9,0,0,0,.368-1.733L30.283.334a3.9,3.9,0,0,0-3.15,0L17.9,4.429V1.314A1.316,1.316,0,0,0,16.584,0h-4.9a1.315,1.315,0,0,0-1.312,1.314V7.768l-9.4,4.167a1.623,1.623,0,0,0-.826,2.14l1.836,4.138a1.62,1.62,0,0,0,1.48.965,1.578,1.578,0,0,0,.656-.14l2.076-.92v6.827a.907.907,0,1,0,1.814,0v-7.63l20.707-9.18,20.709,9.18V47.88H34.745V39.2a2.392,2.392,0,0,0-2.389-2.391h-7.3A2.394,2.394,0,0,0,22.67,39.2V47.88h-10.1l.362-.439a6.236,6.236,0,0,0-.143-8.152l-.145-.253.041-.143a4.7,4.7,0,0,0,.189-1.586A4.83,4.83,0,0,0,8.26,32.8L8,32.8V29.481a.907.907,0,1,0-1.814,0v3.731l-.149.074a4.7,4.7,0,0,0-1.152.805,4.752,4.752,0,0,0-1.31,4.764.454.454,0,0,1-.094.437,6.234,6.234,0,0,0-.141,8.148l.368.439H.905a.907.907,0,0,0,0,1.814H54.837V61a2.236,2.236,0,0,0,2.232,2.234H77.316A2.238,2.238,0,0,0,79.551,61V48.619a.906.906,0,0,0-1.812,0V61a.422.422,0,0,1-.422.422H57.07a.421.421,0,0,1-.42-.422V35.509l.081-.294,8.454-4.651.14.172a15.535,15.535,0,0,1,1.693,2.543.905.905,0,1,0,1.6-.85,17.624,17.624,0,0,0-1.6-2.477l-.4-.605.781.222L77.52,35.139l.219.213v8.731a.907.907,0,0,0,.907.9M12.18,1.812h3.9v3.42l-3.9,1.731ZM11.16,46.691a4.321,4.321,0,0,1-2.992,1.193A4.432,4.432,0,0,1,4.832,40.5a2.273,2.273,0,0,0,.485-2.149,2.844,2.844,0,0,1-.111-.805,2.913,2.913,0,0,1,.922-2.136,2.854,2.854,0,0,1,1.983-.8A2.945,2.945,0,0,1,11.065,37.4a2.85,2.85,0,0,1-.117.982,2.255,2.255,0,0,0,.488,2.119,4.431,4.431,0,0,1-.277,6.193m21.776,1.19H24.481V39.2a.58.58,0,0,1,.579-.579h7.3a.58.58,0,0,1,.579.579ZM55.993,33.552a2.234,2.234,0,0,0-1.156,1.957V47.88H51.229V24.9l3.388.262a15.238,15.238,0,0,1,8.993,3.791l.285.251Z" transform="translate(0)" fill="url(#linear-gradient)"/>
</svg>
