<svg xmlns="http://www.w3.org/2000/svg" width="72.532" height="72.53" viewBox="0 0 72.532 72.53">
  <path id="lalores" d="M35.347,3.95V.917a.917.917,0,1,1,1.835,0V3.95a.917.917,0,1,1-1.835,0m.917,63.712a.918.918,0,0,0-.917.917v3.033a.917.917,0,1,0,1.835,0V68.579a.917.917,0,0,0-.917-.917M51.921,9.051a.92.92,0,0,0,1.253-.339l1.512-2.631A.917.917,0,0,0,53.1,5.167L51.584,7.8a.917.917,0,0,0,.338,1.253M20.612,63.481a.917.917,0,0,0-1.253.338l-1.514,2.631a.917.917,0,1,0,1.591.914l1.514-2.631a.917.917,0,0,0-.338-1.251M64.385,21.258a.918.918,0,0,0,.451-.119l2.638-1.494a.918.918,0,1,0-.9-1.6l-2.638,1.494a.918.918,0,0,0,.453,1.717M7.7,51.393l-2.64,1.5A.917.917,0,0,0,5.51,54.6a.9.9,0,0,0,.451-.121l2.64-1.5a.917.917,0,1,0-.9-1.594M19.359,8.712A.917.917,0,1,0,20.95,7.8L19.436,5.167a.917.917,0,0,0-1.591.914ZM53.174,63.818a.917.917,0,0,0-1.591.914L53.1,67.363a.917.917,0,0,0,1.591-.914ZM8.6,19.541l-2.64-1.494a.918.918,0,0,0-.9,1.6L7.7,21.139a.918.918,0,0,0,.9-1.6M67.475,52.888l-2.638-1.5a.917.917,0,1,0-.9,1.594l2.638,1.5a.9.9,0,0,0,.451.121.917.917,0,0,0,.453-1.716m4.139-17.539H68.579a.917.917,0,0,0,0,1.835h3.035a.917.917,0,0,0,0-1.835M4.87,36.267a.917.917,0,0,0-.917-.917H.917a.917.917,0,0,0,0,1.835H3.952a.918.918,0,0,0,.917-.917m58.306-6.906a2.264,2.264,0,0,1,.017.642,2.232,2.232,0,0,1-.635,1.3L37.766,56.09a2.21,2.21,0,0,1-1.253.629,2.326,2.326,0,0,1-.314.02,2.044,2.044,0,0,1-.319-.024,2.172,2.172,0,0,1-1.251-.629L21.966,43.355a.917.917,0,0,1,1.3-1.294L34.1,52.956,26.761,30.81H12.079l7.879,7.923a.917.917,0,1,1-1.3,1.294L9.968,31.291a2.221,2.221,0,0,1-.29-2.765L17.5,16.776a2.219,2.219,0,0,1,1.842-.985h22.97a.917.917,0,1,1,0,1.835h-4.4l7.062,10.613,7.04-10.578L47,17.625a.917.917,0,0,1,0-1.835h6.057a2.212,2.212,0,0,1,1.725.826c.017.02.094.127.11.149l7.932,11.724a2.229,2.229,0,0,1,.349.872M62.068,29l-.042.028.015,0ZM53.756,18.355l-7.069,10.62H60.941ZM27.423,28.238l7.062-10.613H20.359Zm1.714.736H43.259L36.2,18.363Zm-3.427,0L18.647,18.365,11.583,28.975Zm2.983,1.833,7.5,22.64,4.33-13.062a.917.917,0,1,1,1.741.576L38.287,52.976,60.451,30.81H45.635l-1.894,5.71A.917.917,0,1,1,42,35.944l1.7-5.136Z" fill="#fff"/>
</svg>
