<svg xmlns="http://www.w3.org/2000/svg" width="53.553" height="73.227" viewBox="0 0 53.553 73.227">
      <linearGradient id="linear-gradient" x1="0.5" x2="0.5" y2="1" gradientUnits="objectBoundingBox">
      <stop offset="0" stop-color="#ff0"/>
      <stop offset="1" stop-color="#cc640a"/>
    </linearGradient>
  <path id="criminal" d="M18.944,13.3a1.594,1.594,0,0,0-2.11.462l-1.357,1.949a1.589,1.589,0,0,0,.1,1.936,5.613,5.613,0,0,1,.611,6.912,9.024,9.024,0,0,0,4.593,12.713c2.581,1.024,4.421,1.908,5.281,2.34a1.573,1.573,0,0,0,.722.173,1.538,1.538,0,0,0,.711-.172c.867-.434,2.705-1.318,5.287-2.342a9.02,9.02,0,0,0,4.593-12.713,5.615,5.615,0,0,1,.613-6.912,1.592,1.592,0,0,0,.094-1.936l-1.357-1.949a1.594,1.594,0,0,0-2.108-.462,5.858,5.858,0,0,1-6.768-.7,1.593,1.593,0,0,0-2.13,0,5.853,5.853,0,0,1-6.768.7m7.834.875a7.772,7.772,0,0,0,8.548.886L36.4,16.606a7.485,7.485,0,0,0-.684,8.857,7.136,7.136,0,0,1-3.633,10.058c-2.517,1-4.353,1.872-5.3,2.345-.943-.469-2.783-1.342-5.305-2.345a7.135,7.135,0,0,1-3.633-10.056,7.486,7.486,0,0,0-.684-8.859l1.073-1.542a7.767,7.767,0,0,0,8.55-.886M21.025,24.724a1.482,1.482,0,0,0,.377,1.527l1.606,1.565-.379,2.212A1.495,1.495,0,0,0,24.1,31.772a1.5,1.5,0,0,0,.694-.173l1.985-1.044L28.761,31.6a1.492,1.492,0,0,0,2.164-1.572l-.381-2.21,1.608-1.565a1.491,1.491,0,0,0-.828-2.541l-2.219-.324-.992-2.012a1.483,1.483,0,0,0-1.337-.828h0a1.477,1.477,0,0,0-1.335.83l-.994,2.01-2.219.324a1.478,1.478,0,0,0-1.2,1.014m3.9.5a1.485,1.485,0,0,0,1.122-.816l.732-1.478.73,1.48a1.5,1.5,0,0,0,1.122.814l1.635.238L29.08,26.612a1.494,1.494,0,0,0-.426,1.318l.277,1.627-1.461-.767a1.488,1.488,0,0,0-1.386,0l-1.461.767.277-1.621a1.48,1.48,0,0,0-.426-1.324L23.292,25.46ZM46.532,46.644a.943.943,0,0,1-.943.943H7.964a.943.943,0,0,1,0-1.885H45.59a.942.942,0,0,1,.943.943m0,5.765a.942.942,0,0,1-.943.943H7.964a.943.943,0,0,1,0-1.885H45.59a.943.943,0,0,1,.943.943m0,5.765a.943.943,0,0,1-.943.943H7.964a.943.943,0,0,1,0-1.885H45.59a.943.943,0,0,1,.943.943m0,5.767a.943.943,0,0,1-.943.943H7.964a.943.943,0,1,1,0-1.885H45.59a.942.942,0,0,1,.943.943m7.021-20.969V69.251a3.98,3.98,0,0,1-3.976,3.976H3.976A3.98,3.98,0,0,1,0,69.251V3.976A3.98,3.98,0,0,1,3.976,0H24.264a.943.943,0,1,1,0,1.885H3.976A2.094,2.094,0,0,0,1.885,3.976V69.251a2.094,2.094,0,0,0,2.091,2.091h45.6a2.093,2.093,0,0,0,2.091-2.091V42.973a.943.943,0,0,1,1.885,0m-.025-31.11a.877.877,0,0,0-.023-.119.955.955,0,0,0-.228-.428L42.237.277a.94.94,0,0,0-.428-.23c-.04-.009-.075-.017-.115-.023A.907.907,0,0,0,41.57,0H29.289a.943.943,0,0,0,0,1.885H40.627V8.95A3.98,3.98,0,0,0,44.6,12.926h7.064V37.95a.943.943,0,0,0,1.885,0V11.983a.913.913,0,0,0-.025-.121M44.6,11.041A2.094,2.094,0,0,1,42.513,8.95V3.218l7.822,7.822Z" fill="url(#linear-gradient)"/>
</svg>

