<svg xmlns="http://www.w3.org/2000/svg" width="67.729" height="75.501" viewBox="0 0 67.729 75.501">
    <linearGradient id="linear-gradient" x1="0.5" x2="0.5" y2="1" gradientUnits="objectBoundingBox">
      <stop offset="0" stop-color="#ff0"/>
      <stop offset="1" stop-color="#cc640a"/>
    </linearGradient>
  <path id="consumidor" d="M64.465,15.03a8.415,8.415,0,1,0-9.517.567,6.92,6.92,0,0,0-4.069,6.291v.867a.943.943,0,1,0,1.885,0v-.867a5.049,5.049,0,0,1,5.043-5.041h5.984A2.053,2.053,0,0,1,65.844,18.9v8.9l-13.7,8.546L50.161,33.52,61.14,26.37a.945.945,0,0,0,.428-.79V22.937a.943.943,0,1,0-1.885,0v2.132l-6.917,4.506V27.941a.943.943,0,1,0-1.885,0V30.8l-2.564,1.669-.011.011-.015.008-1.774,1.242a3.51,3.51,0,0,0-1.457,2.289,3.442,3.442,0,0,0-.043.786H41.163a.941.941,0,0,0-.9.666l-.673,2.2H37.831a25.934,25.934,0,0,0-5.571-8.475l1.374-4.713a2.439,2.439,0,0,0-2.342-3.12H26.3a2.437,2.437,0,0,0-2.34,3.12l1.373,4.711a24.457,24.457,0,0,0-4.014,5.3V28.642a.943.943,0,0,0-.943-.943H8.41a.943.943,0,0,0-.943.943v1.452H3.024a.943.943,0,0,0-.943.943V39.67H.942A.943.943,0,0,0,.02,40.806L4.259,60.995a2.449,2.449,0,0,0,2.387,1.938h3.522a.943.943,0,1,0,0-1.885H6.646a.555.555,0,0,1-.541-.439l-4-19.053H39.011L33.05,61.048h-17.7a.943.943,0,0,0,0,1.885H32.8v5.894H2.439a.943.943,0,1,0,0,1.885H6.331a3.3,3.3,0,0,0-.347,1.452,3.337,3.337,0,1,0,6.674,0,3.3,3.3,0,0,0-.347-1.452H24.585a3.3,3.3,0,0,0-.345,1.452,3.336,3.336,0,1,0,6.672,0,3.3,3.3,0,0,0-.347-1.452h3.182a.943.943,0,0,0,.943-.943V62.132l7.17-23.439h3.807a3.531,3.531,0,0,0,4.755.948l.458-.285v29.47h-.262a3.337,3.337,0,0,0,0,6.674H56a2.417,2.417,0,0,0,1.77-.782A3.305,3.305,0,0,0,59.9,75.5h5.386a2.442,2.442,0,0,0,2.44-2.44V69.805c0-.011.008-.023.008-.036V52a.943.943,0,0,0-1.885,0V68.827H61.9L58.231,46.485a.942.942,0,0,0-1.859.305l1.978,12.045-1.642,9.99H52.765V41.555H65.844v5.258a.943.943,0,0,0,1.885,0V18.9a3.934,3.934,0,0,0-3.264-3.867m-11.7-6.606A6.538,6.538,0,1,1,59.3,14.962a6.545,6.545,0,0,1-6.538-6.538m-26.9,17.044a.542.542,0,0,1,.443-.221h4.989a.542.542,0,0,1,.443.221.553.553,0,0,1,.089.486l-1.339,4.589H27.113l-1.339-4.589a.547.547,0,0,1,.087-.486m.909,6.961h4.057a23.985,23.985,0,0,1,4.957,7.242H21.813a24.2,24.2,0,0,1,4.957-7.242M9.353,29.585H19.438V39.67H9.353ZM3.967,31.979h3.5v7.69h-3.5Zm6.806,40.184a1.452,1.452,0,1,1-1.45-1.452,1.452,1.452,0,0,1,1.45,1.452m18.254,0a1.451,1.451,0,1,1-1.45-1.452,1.452,1.452,0,0,1,1.45,1.452m36.81-1.452v2.349a.555.555,0,0,1-.554.554H59.9a1.452,1.452,0,0,1,0-2.9h5.941ZM59.99,68.827H59.9a3.323,3.323,0,0,0-1.322.275l.73-4.449Zm-3.431,1.885v2.349a.555.555,0,0,1-.554.554H50.618a1.452,1.452,0,0,1,0-2.9h5.941ZM49.424,38.043A1.658,1.658,0,0,1,47.6,35.277l1-.7,1.938,2.771Zm3.341.138,13.079-8.156V39.67H52.765Z" transform="translate(0)" fill="url(#linear-gradient)"/>
</svg>
