<svg xmlns="http://www.w3.org/2000/svg" width="58.074" height="65.473" viewBox="0 0 58.074 65.473">
  <linearGradient id="linear-gradient" x1="0.5" x2="0.5" y2="1" gradientUnits="objectBoundingBox">
      <stop offset="0" stop-color="#ff0"/>
      <stop offset="1" stop-color="#cc640a"/>
    </linearGradient>
  <path id="tributario" d="M45.454,60.688a.967.967,0,0,0-1.078.841A2.3,2.3,0,0,1,42.1,63.54H4.229a2.3,2.3,0,0,1-2.3-2.3V22.121L7.187,39.449a.966.966,0,0,0,1.85-.562L4.216,22.99a4.449,4.449,0,0,0,8.578-1.655v-11.1L34.132,3.762a.966.966,0,0,0-.562-1.85L15.692,7.334A6.237,6.237,0,0,0,3.9,10.162v.752l-.863.262a4.2,4.2,0,0,0-3,4.046L0,16.365V61.242a4.234,4.234,0,0,0,4.229,4.231H42.1a4.236,4.236,0,0,0,4.2-3.707.969.969,0,0,0-.841-1.078M10.134,5.858A4.308,4.308,0,0,1,13.8,7.909l-1.669.505A2.71,2.71,0,0,0,7.4,9.851c-.034.266-.023,9.568-.021,9.924a.966.966,0,0,0,1.932,0V10.189a.776.776,0,1,1,1.552,0V21.335a2.518,2.518,0,0,1-5.036,0V10.164a4.31,4.31,0,0,1,4.306-4.306m-7.5,7.747,0,0A2.429,2.429,0,0,1,3.9,13c.03,8.684-.072,8.454.092,9.244L2.061,15.89a2.288,2.288,0,0,1,.573-2.285M58.072,48.23a4.208,4.208,0,0,1-3,4.046l-8.742,2.651v2.856a.966.966,0,1,1-1.932,0v-2.27L18.833,63.267a4.267,4.267,0,0,1-1.229.183,4.207,4.207,0,0,1-4.048-3l-5.247-17.3a.966.966,0,1,1,1.85-.562l5.249,17.3a2.309,2.309,0,0,0,2.2,1.631c.518,0-1.8.65,36.906-11.092a2.3,2.3,0,0,0,1.529-2.866L46.327,15.541l-.856-2.82L42.694,3.566a2.311,2.311,0,0,0-2.2-1.631,11.466,11.466,0,0,0-2.668.705A.966.966,0,1,1,37.27.79l2-.605A4.215,4.215,0,0,1,44.543,3C58.549,49.393,58.072,47.053,58.072,48.23M21.893,16.652l-.162-.534a1.212,1.212,0,1,1,2.319-.7l.117.388c.848-.14,2.43-.245,2.745.792a1.229,1.229,0,0,1-.713,1.518c-.588.179-1.014-.305-2.238.066-.837.255-1.425.686-1.173,1.521.264.871,1.075.816,2.24.9,1.291.077,3.452.206,4.268,2.9a3.488,3.488,0,0,1-1.482,4.323l.124.411a1.212,1.212,0,1,1-2.319.7l-.117-.385c-1.531.128-2.93-.445-3.205-1.35a1.266,1.266,0,0,1,.73-1.523c.931-.283,1.188.978,2.9.46,1.061-.321,1.422-.914,1.133-1.863-.336-1.1-1.054-1.2-2.517-1.3s-3.3-.213-3.991-2.506a3.16,3.16,0,0,1,1.344-3.825M44.144,28.573a.963.963,0,0,1-.643,1.2L15.954,38.134a.966.966,0,1,1-.562-1.85l27.547-8.356a.966.966,0,0,1,1.2.645m1.61,5.3a.969.969,0,0,1-.645,1.207c-.055.017-27.532,8.35-27.547,8.356A.967.967,0,1,1,17,41.586l27.394-8.309.153-.047a.97.97,0,0,1,1.207.645m1.608,5.3a.967.967,0,0,1-.645,1.207c-6.51,1.974-21.416,6.5-27.547,8.356a.966.966,0,0,1-.562-1.85l25.786-7.822,1.763-.534a.966.966,0,0,1,1.2.643M20.218,52.191h0l26.106-7.918,1.439-.437a.966.966,0,1,1,.56,1.85c-29.229,8.872-27.611,8.4-27.828,8.4a.968.968,0,0,1-.279-1.893m0,0h0" transform="translate(0 0)" fill="url(#linear-gradient)"/>
</svg>

