<svg xmlns="http://www.w3.org/2000/svg" width="50.501" height="41.768" viewBox="0 0 50.501 41.768">
  <path id="regularizacao" d="M10.823,9.788a.65.65,0,0,1,.65-.65h10.7a.65.65,0,0,1,0,1.3h-10.7a.651.651,0,0,1-.65-.65m13.517,4.97a.651.651,0,0,0-.65-.65h-6.7a.65.65,0,0,0,0,1.3h6.7a.651.651,0,0,0,.65-.65m-12.867.65h2.912a.65.65,0,0,0,0-1.3H11.474a.65.65,0,1,0,0,1.3m13.28-4.97h3.624a.65.65,0,0,0,0-1.3H24.754a.65.65,0,1,0,0,1.3m-3.991,9.089H14.825a.65.65,0,1,0,0,1.3h5.938a.65.65,0,0,0,0-1.3m-9.289,1.3h.745a.65.65,0,1,0,0-1.3h-.745a.65.65,0,1,0,0,1.3m9.289,4.118h-.519a.65.65,0,0,0,0,1.3h.519a.65.65,0,0,0,0-1.3m-3.125,0H11.474a.65.65,0,0,0,0,1.3h6.164a.65.65,0,0,0,0-1.3M40.6,23.217a.649.649,0,0,1-.617.449H38.668v7.28a.65.65,0,0,1-.65.65h-9.5a.65.65,0,0,1-.65-.65V23.664H26.553a.65.65,0,0,1-.382-1.175L32.886,17.6a.651.651,0,0,1,.766,0l4.218,3.071v-.209a.65.65,0,1,1,1.3,0v1.157l1.2.87a.651.651,0,0,1,.235.728m-2.615-.852L33.268,18.93l-4.717,3.436a.649.649,0,0,1,.62.649V30.3h8.2v-7.28a.65.65,0,0,1,.62-.65M50.412,39.794a2.655,2.655,0,0,1-4.457,1.184l-3.441-3.441a.758.758,0,0,1,0-1.072l.805-.805-2.948-2.948a10.823,10.823,0,0,1-6.053,2.605A6.8,6.8,0,0,1,27.627,41.4c-.127,0-.253,0-.379-.011V41.4H6.452v-.007A6.82,6.82,0,0,1,0,34.528V30.5a.651.651,0,0,1,.65-.65H6.111l.22-24.913A5,5,0,0,1,11.316,0H37.29V0c.071,0,.144,0,.216,0a4.448,4.448,0,0,1,4.443,4.443v7.044a.651.651,0,0,1-.65.65H34.362v1.628a10.825,10.825,0,0,1,7.082,17.874l2.948,2.948.8-.805a.759.759,0,0,1,1.073,0l3.44,3.441a2.653,2.653,0,0,1,.7,2.571M34.364,4.444v6.394h6.286V4.444a3.143,3.143,0,1,0-6.286,0M23.686,40.1a6.907,6.907,0,0,1-2.8-5.57V31.151H1.3V34.53A5.511,5.511,0,0,0,6.737,40.1ZM33,35.364a10.828,10.828,0,0,1,.06-21.652V4.444A4.43,4.43,0,0,1,34.369,1.3H11.316A3.7,3.7,0,0,0,7.632,4.948l-.22,24.9H21.536a.651.651,0,0,1,.65.65V34.53A5.431,5.431,0,0,0,33,35.364m9.579-10.828a9.313,9.313,0,1,0-2.728,6.587h0a9.248,9.248,0,0,0,2.727-6.585M48.638,38.3l-2.9-2.905L44.125,37l2.9,2.9A1.138,1.138,0,1,0,48.638,38.3" fill="#fff"/>
</svg>
