<svg xmlns="http://www.w3.org/2000/svg" width="41.478" height="43.397" viewBox="0 0 41.478 43.397">
  <path id="cobranca" d="M41.478,21.422v17.8a4.176,4.176,0,0,1-4.17,4.171H7.129A7.139,7.139,0,0,1,0,36.265V17.434a.615.615,0,0,1,1.229,0V36.265a5.908,5.908,0,0,0,5.9,5.9H24.218A4.16,4.16,0,0,1,23,39.226V31.809a.615.615,0,1,1,1.229,0v7.417a2.945,2.945,0,0,0,2.941,2.942H37.308a2.945,2.945,0,0,0,2.941-2.942v-17.8a2.945,2.945,0,0,0-2.941-2.942H27.171a2.945,2.945,0,0,0-2.941,2.942v7.417a.615.615,0,1,1-1.229,0V21.422a4.175,4.175,0,0,1,4.17-4.171h3.5V7.132a5.909,5.909,0,0,0-5.9-5.9H7.129a5.908,5.908,0,0,0-5.9,5.9v7.332a.615.615,0,1,1-1.229,0V7.132A7.138,7.138,0,0,1,7.129,0H24.763A7.14,7.14,0,0,1,31.9,7.132V17.251h5.413a4.176,4.176,0,0,1,4.17,4.171m-3.194,2.726a2,2,0,0,1-2,2H28.192a2,2,0,0,1-2-2v-1.7a2,2,0,0,1,2-2h8.093a2,2,0,0,1,2,2Zm-1.229-1.7a.771.771,0,0,0-.77-.77H28.192a.772.772,0,0,0-.77.77v1.7a.771.771,0,0,0,.77.77h8.093a.77.77,0,0,0,.77-.77Zm-10.862,7.6a1.937,1.937,0,0,1,1.935-1.936h1.192a1.937,1.937,0,0,1,1.935,1.936V31.24a1.937,1.937,0,0,1-1.935,1.935H28.128a1.937,1.937,0,0,1-1.935-1.935Zm1.229,1.192a.707.707,0,0,0,.706.706h1.192a.706.706,0,0,0,.706-.706V30.047a.707.707,0,0,0-.706-.707H28.128a.708.708,0,0,0-.706.707Zm-1.229,5.835a1.937,1.937,0,0,1,1.935-1.935h1.192a1.937,1.937,0,0,1,1.935,1.935v1.192A1.937,1.937,0,0,1,29.321,40.2H28.128a1.937,1.937,0,0,1-1.935-1.935Zm1.229,1.192a.706.706,0,0,0,.706.706h1.192a.706.706,0,0,0,.706-.706V37.074a.706.706,0,0,0-.706-.706H28.128a.707.707,0,0,0-.706.706ZM38.284,31.24a1.937,1.937,0,0,1-1.935,1.935H35.157a1.937,1.937,0,0,1-1.935-1.935V30.047a1.937,1.937,0,0,1,1.935-1.936h1.193a1.937,1.937,0,0,1,1.935,1.936Zm-1.229-1.192a.708.708,0,0,0-.706-.707H35.157a.708.708,0,0,0-.706.707V31.24a.707.707,0,0,0,.706.706h1.193a.707.707,0,0,0,.706-.706Zm1.229,7.027v1.192A1.937,1.937,0,0,1,36.349,40.2H35.157a1.937,1.937,0,0,1-1.935-1.935V37.074a1.937,1.937,0,0,1,1.935-1.935h1.193a1.937,1.937,0,0,1,1.935,1.935m-1.229,0a.707.707,0,0,0-.706-.706H35.157a.707.707,0,0,0-.706.706v1.192a.706.706,0,0,0,.706.706h1.193a.706.706,0,0,0,.706-.706ZM16.561,15.949v-.775a1.887,1.887,0,0,0-.615-3.673.663.663,0,0,1,0-1.327h1.279a.615.615,0,1,0,0-1.229h-.664V8.282a.615.615,0,1,0-1.229,0v.773a1.888,1.888,0,0,0,.615,3.675.663.663,0,1,1,0,1.325H14.669a.615.615,0,0,0,0,1.229h.663v.664a.615.615,0,0,0,1.229,0M5.111,22.338a.614.614,0,0,0,.615.615H19.141a.615.615,0,0,0,0-1.229H5.725a.613.613,0,0,0-.615.615m.615,5.725H19.141a.615.615,0,0,0,0-1.229H5.725a.615.615,0,1,0,0,1.229m0,5.112H19.141a.615.615,0,0,0,0-1.229H5.725a.615.615,0,1,0,0,1.229m0,5.111H19.141a.615.615,0,0,0,0-1.229H5.725a.615.615,0,1,0,0,1.229m10.221-19.17A7,7,0,1,1,20.9,17.067a6.978,6.978,0,0,1-4.953,2.048M11.864,16.2a5.771,5.771,0,1,0,0-8.167,5.782,5.782,0,0,0,0,8.167" fill="#fff"/>
</svg>
