<svg xmlns="http://www.w3.org/2000/svg" width="21.57" height="21.57" viewBox="0 0 21.57 21.57">
  <path id="linkedin-brands" d="M20.03,32H1.536A1.547,1.547,0,0,0,0,33.555v18.46A1.547,1.547,0,0,0,1.536,53.57H20.03a1.551,1.551,0,0,0,1.541-1.555V33.555A1.551,1.551,0,0,0,20.03,32ZM6.519,50.489h-3.2V40.195h3.2V50.489Zm-1.6-11.7a1.854,1.854,0,1,1,1.854-1.854A1.854,1.854,0,0,1,4.921,38.789ZM18.5,50.489h-3.2V45.481c0-1.194-.024-2.73-1.661-2.73-1.666,0-1.921,1.3-1.921,2.643v5.094h-3.2V40.195h3.067V41.6h.043a3.367,3.367,0,0,1,3.029-1.661c3.236,0,3.837,2.133,3.837,4.906Z" transform="translate(0 -32)" fill="#fff"/>
</svg>
