<svg xmlns="http://www.w3.org/2000/svg" width="50.793" height="63.125" viewBox="0 0 50.793 63.125">
  <path id="seguradora" d="M12.455,16.337a.925.925,0,1,1,0-1.85h12.2a.925.925,0,1,1,0,1.85ZM7.338,21.7a.925.925,0,0,0,.925.923H28.849a.924.924,0,1,0,0-1.848H8.262a.925.925,0,0,0-.925.925m.925,5.238H28.849a.925.925,0,1,0,0-1.85H8.262a.925.925,0,1,0,0,1.85m0,8.631h7.025a.925.925,0,1,0,0-1.85H8.262a.925.925,0,1,0,0,1.85m40.681,4.745V36.282L36.627,28.654,24.311,36.282v10.1a9.363,9.363,0,0,0,3.3,7.137l9.021,7.689,9.021-7.689a9.357,9.357,0,0,0,3.3-7.137V44.63a.925.925,0,0,1,1.85,0v1.75a11.212,11.212,0,0,1-3.945,8.545l-9.164,7.808a1.619,1.619,0,0,1-2.113,0l-5.24-4.464H12.451a.925.925,0,1,1,0-1.849H28.162l-1.756-1.494a11.227,11.227,0,0,1-3.74-6.409H8.262a.925.925,0,1,1,0-1.85h14.2c0-.1,0-.191,0-.287V44.2H8.262a.925.925,0,1,1,0-1.85h14.2V39.885H8.262a.925.925,0,1,1,0-1.849h14.2V36.159a1.62,1.62,0,0,1,.109-.589H18.245a.925.925,0,1,1,0-1.85h6.688l3.988-2.47c-.023,0-.047,0-.072,0H8.262a.925.925,0,1,1,0-1.85H28.849a.924.924,0,0,1,.792,1.4l5.621-3.482V10.313H1.85V56.42H8.135a.925.925,0,1,1,0,1.849H1.3a1.3,1.3,0,0,1-1.3-1.3V9.759a1.3,1.3,0,0,1,1.3-1.3H4.232V5.527a1.3,1.3,0,0,1,1.3-1.3H8.463V1.3A1.3,1.3,0,0,1,9.759,0H44.281a1.3,1.3,0,0,1,1.293,1.3V32.019l4.448,2.755a1.621,1.621,0,0,1,.771,1.385v4.156a.925.925,0,0,1-1.85,0M43.725,1.85H10.313V4.232H40.049a1.3,1.3,0,0,1,1.293,1.3v7.049a.925.925,0,1,1-1.85,0V6.081H6.081V8.463H35.818a1.3,1.3,0,0,1,1.293,1.3V26.839a1.538,1.538,0,0,1,.375.17l2.008,1.243V16.891a.925.925,0,0,1,1.85,0V29.4l2.382,1.475Zm-7.1,32.922a8.47,8.47,0,1,1-8.469,8.471,8.481,8.481,0,0,1,8.469-8.471m0,1.85a6.621,6.621,0,1,0,6.622,6.622,6.627,6.627,0,0,0-6.622-6.622m-1.9,5.708a.924.924,0,0,0-1.307,1.307l2.23,2.232a.926.926,0,0,0,1.309,0L40.42,42.41A.925.925,0,1,0,39.111,41.1l-2.8,2.8Z" fill="#040506"/>
</svg>
