<svg xmlns="http://www.w3.org/2000/svg" width="22" height="22" viewBox="0 0 22 22">
  <g id="Grupo_58" data-name="Grupo 58" transform="translate(0 -2)">
    <rect id="Retângulo_26" data-name="Retângulo 26" width="22" height="22" rx="11" transform="translate(0 2)" fill="#fff"/>
    <path id="phone-flip-solid" d="M.529,9.82,3.547,8.526a.865.865,0,0,1,1.014.25l1.227,1.5a9.734,9.734,0,0,0,4.438-4.438L8.729,4.61A.872.872,0,0,1,8.479,3.6L9.773.577a.873.873,0,0,1,1-.5l2.8.647a.865.865,0,0,1,.674.847A12.742,12.742,0,0,1,1.518,14.3a.864.864,0,0,1-.847-.674l-.647-2.8A.876.876,0,0,1,.529,9.82Z" transform="translate(4.1 6.597)"/>
  </g>
</svg>
