<svg xmlns="http://www.w3.org/2000/svg" width="56.021" height="65.44" viewBox="0 0 56.021 65.44">
  <path id="empresarial" d="M55.079,63.555H51.915V41.983a.943.943,0,1,0-1.885,0V63.555H46.808v-4.15a1.99,1.99,0,0,0-1.987-1.989H40.345a1.99,1.99,0,0,0-1.987,1.989v4.15H35.133v-57l14.259,7.3A1.169,1.169,0,0,1,50.03,14.9V37.509a.943.943,0,0,0,1.885,0V14.9a3.043,3.043,0,0,0-1.665-2.724L35.133,4.438V.943a.943.943,0,0,0-1.885,0V15.379H29.894V9.065a2.061,2.061,0,0,0-2.059-2.057H20.562V.943a.943.943,0,1,0-1.885,0V7.008H11.4A2.061,2.061,0,0,0,9.344,9.065v6.314H6.161A2.061,2.061,0,0,0,4.1,17.438v5.833a.943.943,0,1,0,1.885,0V17.438a.173.173,0,0,1,.172-.173H33.248V63.555H27.339v-4.15a1.99,1.99,0,0,0-1.987-1.989H13.886A1.99,1.99,0,0,0,11.9,59.405v4.15H5.99V27.747a.943.943,0,1,0-1.885,0V63.555H.943a.943.943,0,1,0,0,1.885H55.079a.943.943,0,1,0,0-1.885M11.229,15.379V9.065a.173.173,0,0,1,.173-.172H27.835a.173.173,0,0,1,.173.172v6.314Zm9.706,48.176H18.3V59.3h2.632ZM13.886,59.3h2.532v4.253H13.8Zm8.935,4.253V59.3h2.532l.1.1v4.15Zm17.441,0,.083-4.253H44.82l.1.1v4.15Zm-22.9-9.5a.942.942,0,0,1-.943-.943V22.852a.943.943,0,0,1,1.885,0V53.116a.943.943,0,0,1-.943.943m4.517,0a.943.943,0,0,1-.943-.943V22.852a.943.943,0,0,1,1.885,0V53.116a.942.942,0,0,1-.943.943m-9.036,0a.943.943,0,0,1-.943-.943V22.852a.943.943,0,1,1,1.885,0V53.116a.943.943,0,0,1-.943.943m13.556,0a.943.943,0,0,1-.943-.943V22.852a.943.943,0,0,1,1.885,0V53.116a.942.942,0,0,1-.943.943M46.808,21.917a.942.942,0,0,1-.943.943H39.3a.943.943,0,1,1,0-1.885h6.565a.943.943,0,0,1,.943.943m0-4.457a.943.943,0,0,1-.943.943H39.3a.943.943,0,1,1,0-1.885h6.565a.943.943,0,0,1,.943.943m0,8.914a.943.943,0,0,1-.943.943H39.3a.943.943,0,1,1,0-1.885h6.565a.943.943,0,0,1,.943.943m0,4.457a.942.942,0,0,1-.943.943H39.3a.943.943,0,1,1,0-1.885h6.565a.943.943,0,0,1,.943.943m0,4.457a.943.943,0,0,1-.943.943H39.3a.943.943,0,1,1,0-1.885h6.565a.943.943,0,0,1,.943.943m0,4.457a.942.942,0,0,1-.943.943H39.3a.943.943,0,1,1,0-1.885h6.565a.943.943,0,0,1,.943.943m0,4.457a.942.942,0,0,1-.943.943H39.3a.943.943,0,1,1,0-1.885h6.565a.943.943,0,0,1,.943.943m0,4.459a.943.943,0,0,1-.943.943H39.3a.943.943,0,1,1,0-1.885h6.565a.942.942,0,0,1,.943.943m0,4.455a.943.943,0,0,1-.943.943H39.3a.943.943,0,1,1,0-1.885h6.565a.943.943,0,0,1,.943.943" fill="#040506"/>
</svg>
