<svg xmlns="http://www.w3.org/2000/svg" width="60.063" height="60.079" viewBox="0 0 60.063 60.079">
  <path id="credito" d="M38.555,18.914a.939.939,0,0,1,.938-.938h4.729a.939.939,0,1,1,0,1.879H39.493a.94.94,0,0,1-.938-.94m-3.791.94a.939.939,0,1,0-.94-.94.94.94,0,0,0,.94.94m25.282,9.368A4.454,4.454,0,0,1,59,32.5L50.183,43.04c-1.563,1.867-1.842,2.2-1.889,2.249a10.341,10.341,0,0,1-7.254,2.946H25.318A3.783,3.783,0,0,0,22.686,49.3l-1.344,1.3.051.148a3.335,3.335,0,0,1-.782,3.418L14.876,59.81a.94.94,0,0,1-1.325-.008L.271,46.423a.938.938,0,0,1,0-1.325L5.9,39.456a3.3,3.3,0,0,1,2.95-.913l.172.031.086-.156c2.556-4.723,7.339-7.431,13.12-7.431a15.023,15.023,0,0,1,5.827,1.161l13.284.02a4.484,4.484,0,0,1,3.488,1.672L45,34.05l7.18-7.377a4.5,4.5,0,0,1,6.3-.5,4.453,4.453,0,0,1,1.574,3.051M19.422,50.978c-.055-.072-10.217-10.268-10.43-10.4a1.429,1.429,0,0,0-1.764.2L2.265,45.763,14.227,57.818l5.063-4.989a1.433,1.433,0,0,0,.133-1.851M57.263,27.6a2.626,2.626,0,0,0-3.679.31c-.041.047-.494.509-2.169,2.234l-5.646,5.8.016.117a4.482,4.482,0,0,1-4.446,5.072H31.69a.938.938,0,1,1,0-1.877h9.647a2.609,2.609,0,1,0,0-5.219H27.909a.974.974,0,0,1-.378-.078,13.121,13.121,0,0,0-5.3-1.1c-5.1,0-9.294,2.368-11.5,6.5l-.082.158,9.39,9.392.172.168,1.176-1.135a5.636,5.636,0,0,1,3.935-1.59H41.04a8.481,8.481,0,0,0,5.919-2.392L57.567,31.287a2.622,2.622,0,0,0-.3-3.683M26.756,39.062a.936.936,0,0,0-.94.938.937.937,0,0,0,1.6.663.938.938,0,0,0-.663-1.6M14.9,21.281V3.3a3.307,3.307,0,0,1,3.3-3.3H46.589a3.308,3.308,0,0,1,3.3,3.3V21.281a3.307,3.307,0,0,1-3.3,3.3H18.207a3.306,3.306,0,0,1-3.3-3.3M16.78,4.731H48.015V3.3a1.426,1.426,0,0,0-1.426-1.424H18.207A1.428,1.428,0,0,0,16.78,3.3Zm0,4.729H48.015V6.608H16.78Zm0,11.821a1.428,1.428,0,0,0,1.426,1.424H46.589a1.426,1.426,0,0,0,1.426-1.424V11.339H16.78Z" transform="translate(0)" fill="#040506"/>
</svg>
