<svg xmlns="http://www.w3.org/2000/svg" width="61.855" height="61.828" viewBox="0 0 61.855 61.828">
  <path id="banco" d="M30.927,28.529a10.43,10.43,0,1,0,10.432,10.43,10.441,10.441,0,0,0-10.432-10.43m0,18.909a8.479,8.479,0,1,1,8.481-8.479,8.488,8.488,0,0,1-8.481,8.479m1.1-12.449a.809.809,0,0,1,.673.88.975.975,0,1,0,1.951,0,2.736,2.736,0,0,0-2.624-2.831H31.9V32.61a.975.975,0,1,0-1.951,0v.427h-.123a2.736,2.736,0,0,0-2.622,2.831V37.1a2.736,2.736,0,0,0,2.622,2.831h.123v2.995h-.123a.806.806,0,0,1-.671-.878.975.975,0,0,0-1.951,0,2.735,2.735,0,0,0,2.622,2.829h.123v.429a.975.975,0,1,0,1.951,0V44.88h.125a2.736,2.736,0,0,0,2.624-2.829V40.814a2.736,2.736,0,0,0-2.624-2.831H31.9V34.988Zm0,4.946a.809.809,0,0,1,.673.88v1.237a.807.807,0,0,1-.673.878H31.9V39.934Zm-2.076-1.951h-.123a.807.807,0,0,1-.671-.88V35.868c0-.476.306-.88.671-.88h.123ZM35.158,9.688a4.231,4.231,0,1,0-4.232,4.23,4.235,4.235,0,0,0,4.232-4.23m-6.51,0a2.28,2.28,0,1,1,2.279,2.279,2.281,2.281,0,0,1-2.279-2.279m25.975,18.2,3.145-4.429h.4a3.69,3.69,0,0,0,3.687-3.685V17.065a.227.227,0,0,0-.008-.035.924.924,0,0,0-.064-.318l-.006-.029a.992.992,0,0,0-.2-.289c-.025-.025-.057-.043-.084-.068a1.167,1.167,0,0,0-.144-.115L33.154.577a4.585,4.585,0,0,0-4.454,0L17.328,6.883a.976.976,0,0,0,.946,1.707L29.647,2.284a2.615,2.615,0,0,1,2.562,0l24.9,13.8H4.747l9.8-5.431A.976.976,0,1,0,13.6,8.951L.5,16.21a1.038,1.038,0,0,0-.144.115c-.027.025-.059.043-.084.068a.955.955,0,0,0-.2.289l-.008.029a.97.97,0,0,0-.062.318A.227.227,0,0,0,0,17.065v2.712a3.69,3.69,0,0,0,3.687,3.685h.4l3.145,4.429V50.028L4.087,54.455H2.181A2.182,2.182,0,0,0,0,56.634v3.014a2.182,2.182,0,0,0,2.181,2.179H59.674a2.182,2.182,0,0,0,2.181-2.179V56.634a2.182,2.182,0,0,0-2.181-2.179H57.768l-3.145-4.427ZM46.386,42.074a.975.975,0,0,0-.975.975V50.03l-3.143,4.425H19.59l-3.145-4.427V27.891l3.145-4.429H42.267l3.143,4.427V38.83a.975.975,0,1,0,1.951,0V28.554h5.31V49.365h-5.31V43.05a.976.976,0,0,0-.975-.975m-37.2-13.52h5.31V49.365H9.183ZM53.144,26.6H46.889l-2.23-3.141H55.376ZM1.951,19.777V18.04H59.9v1.736a1.737,1.737,0,0,1-1.736,1.734H3.687a1.737,1.737,0,0,1-1.736-1.734M17.2,23.462,14.966,26.6H8.711l-2.23-3.141ZM8.711,51.316h6.255l2.23,3.139H6.481ZM59.9,56.634v3.014a.229.229,0,0,1-.23.228H2.181a.229.229,0,0,1-.23-.228V56.634a.23.23,0,0,1,.23-.228H59.674a.23.23,0,0,1,.23.228M44.659,54.455l2.23-3.139h6.255l2.232,3.139Z" fill="#040506"/>
</svg>
