<svg xmlns="http://www.w3.org/2000/svg" width="48.409" height="48.408" viewBox="0 0 48.409 48.408">
  <path id="due_diligence" data-name="due diligence" d="M24.2,9.357A5.514,5.514,0,0,0,18.7,14.864v2.177H17.342a.709.709,0,0,0,0,1.417H31.066a.709.709,0,1,0,0-1.417H29.712V14.864A5.514,5.514,0,0,0,24.2,9.357M23.5,17.042H20.115V14.864q0-.124.007-.247H23.5Zm0-3.843H20.47a4.1,4.1,0,0,1,3.026-2.36Zm1.417-2.36A4.1,4.1,0,0,1,27.938,13.2H24.913Zm3.381,6.2H24.913V14.617h3.372c0,.082.009.165.009.247ZM44.108,28.527V17.511l.8.463a1.649,1.649,0,0,0,.838.227,1.67,1.67,0,0,0,1.442-.824l.995-1.7a1.669,1.669,0,0,0-.6-2.287L41.447,9.812a.709.709,0,1,0-.715,1.224l6.133,3.584a.251.251,0,0,1,.09.345l-.995,1.7a.25.25,0,0,1-.342.09L24.562,4.447a.709.709,0,0,0-.715,0L17.2,8.332a.709.709,0,1,0,.714,1.224L24.2,5.88l18.486,10.8V27.589a11.065,11.065,0,0,0-3.189-1.18V22.385a.709.709,0,0,0-.708-.709H25.356a.71.71,0,0,0-.709.709v8.62a.71.71,0,0,0,.709.709H27.7a11.094,11.094,0,0,0-1.245,7.995h-2.4V37.537a.71.71,0,0,0-.709-.709H22.61V34.655a.708.708,0,0,0-.708-.708H20.69V22.385a.71.71,0,0,0-.709-.709H12.3a.71.71,0,0,0-.709.709v3.538a.709.709,0,0,0,1.419,0V23.094h6.26V33.947h-6.26V29.231a.709.709,0,1,0-1.419,0v4.716h-1.21a.709.709,0,0,0-.709.708v2.172h-.73a.71.71,0,0,0-.709.709v2.172H5.719V16.683l9.346-5.462A.709.709,0,1,0,14.349,10L2.791,16.752a.253.253,0,0,1-.343-.09l-.995-1.7a.254.254,0,0,1-.026-.192.25.25,0,0,1,.116-.154L24.079,1.452a.25.25,0,0,1,.252,0L37.876,9.368a.709.709,0,0,0,.715-1.224L25.046.227a1.669,1.669,0,0,0-1.683,0L.827,13.4a1.672,1.672,0,0,0-.6,2.287l.995,1.7a1.673,1.673,0,0,0,2.282.6l.794-.465V40.418a.709.709,0,0,0,.709.709H26.871a11.108,11.108,0,1,0,17.237-12.6M11.093,35.364h10.1v1.463h-10.1Zm11.539,4.345H9.654V38.246H22.632ZM32.784,23.094h5.3v3.124q-.389-.028-.784-.028a11.037,11.037,0,0,0-4.516.96Zm-6.719,7.2v-7.2h5.3v4.817A11.2,11.2,0,0,0,28.681,30.3ZM37.3,46.989A9.691,9.691,0,1,1,46.991,37.3,9.7,9.7,0,0,1,37.3,46.989M43.6,33a2.058,2.058,0,0,0-2.906,0l-4.881,4.9-2-2A2.055,2.055,0,0,0,30.9,38.8l3.456,3.456a2.055,2.055,0,0,0,2.909,0l5.548-5.521a.738.738,0,0,0,.09-.135l.695-.7A2.055,2.055,0,0,0,43.6,33m-7.333,8.258a.637.637,0,0,1-.9,0L31.907,37.8a.638.638,0,0,1,0-.9.64.64,0,0,1,.9,0l2.5,2.5a.712.712,0,0,0,.5.208h0a.706.706,0,0,0,.5-.209L41.7,34a.636.636,0,0,1,.9,0,.637.637,0,0,1,0,.9l-1.824,1.832a.623.623,0,0,0-.071.107Z" transform="translate(0 0)" fill="#fff"/>
</svg>
