<svg xmlns="http://www.w3.org/2000/svg" width="21.749" height="21.744" viewBox="0 0 21.749 21.744">
  <path id="instagram-brands" d="M10.8,37.122A5.575,5.575,0,1,0,16.377,42.7,5.566,5.566,0,0,0,10.8,37.122Zm0,9.2A3.624,3.624,0,1,1,14.426,42.7,3.631,3.631,0,0,1,10.8,46.321Zm7.1-9.427a1.3,1.3,0,1,1-1.3-1.3A1.3,1.3,0,0,1,17.9,36.894Zm3.692,1.32a6.435,6.435,0,0,0-1.756-4.556A6.477,6.477,0,0,0,15.285,31.9c-1.8-.1-7.176-.1-8.971,0a6.468,6.468,0,0,0-4.556,1.752A6.456,6.456,0,0,0,0,38.209C-.1,40-.1,45.385,0,47.18a6.435,6.435,0,0,0,1.756,4.556,6.485,6.485,0,0,0,4.556,1.756c1.8.1,7.176.1,8.971,0a6.435,6.435,0,0,0,4.556-1.756A6.477,6.477,0,0,0,21.6,47.18c.1-1.8.1-7.171,0-8.966ZM19.278,49.106a3.669,3.669,0,0,1-2.067,2.067c-1.431.568-4.828.437-6.409.437s-4.983.126-6.409-.437a3.669,3.669,0,0,1-2.067-2.067c-.568-1.431-.437-4.828-.437-6.409s-.126-4.983.437-6.409a3.669,3.669,0,0,1,2.067-2.067c1.431-.568,4.828-.437,6.409-.437s4.983-.126,6.409.437a3.669,3.669,0,0,1,2.067,2.067c.568,1.431.437,4.828.437,6.409S19.846,47.68,19.278,49.106Z" transform="translate(0.075 -31.825)" fill="#fff"/>
</svg>
