<svg xmlns="http://www.w3.org/2000/svg" width="85.996" height="79.641" viewBox="0 0 85.996 79.641" >
  <path id="civil" d="M79.034,57.126A16.123,16.123,0,0,0,72.3,44.042a.944.944,0,0,0-1.1,1.537A14.153,14.153,0,0,1,73.7,66.37a17.113,17.113,0,0,0-5.98-6.706,6.383,6.383,0,1,0-9.5,0,17.1,17.1,0,0,0-5.98,6.706A14.176,14.176,0,0,1,67.365,43.638a.944.944,0,0,0,.584-1.795,16.043,16.043,0,0,0-17.93,5.8l-9.546-6.161V32.091a16,16,0,0,0,10.07-4.351A.863.863,0,0,0,50.7,27.6,16.06,16.06,0,0,0,30.4,2.849.943.943,0,0,0,31.47,4.4a14.171,14.171,0,0,1,18.8,20.912,17.126,17.126,0,0,0-5.98-6.706,6.383,6.383,0,1,0-9.5,0,17.126,17.126,0,0,0-5.98,6.706,14.146,14.146,0,0,1-.511-17.89A.942.942,0,0,0,26.8,6.273,16.038,16.038,0,0,0,28.365,27.6a.863.863,0,0,0,.156.141,16,16,0,0,0,10.068,4.351v9.395L29.01,47.671A16.059,16.059,0,1,0,12.585,72.846.943.943,0,0,0,12.992,71a14.014,14.014,0,0,1-6.216-3.162,15.269,15.269,0,0,1,6.6-7.194.944.944,0,0,0,.1-1.593,4.5,4.5,0,1,1,5.251,0,.944.944,0,0,0,.1,1.593,15.27,15.27,0,0,1,6.595,7.193,14.131,14.131,0,0,1-8.05,3.441.943.943,0,0,0,.085,1.882c.028,0,.057,0,.085,0a16.043,16.043,0,0,0,12.5-23.91l9.493-6.129,9.457,6.1A16,16,0,0,0,51.8,68.655a.884.884,0,0,0,.153.138,15.987,15.987,0,0,0,22.032,0,.905.905,0,0,0,.147-.134,16.008,16.008,0,0,0,4.9-11.531M26.845,66.4a17.1,17.1,0,0,0-5.994-6.736,6.383,6.383,0,1,0-9.5,0A17.1,17.1,0,0,0,5.354,66.4a14.152,14.152,0,1,1,21.491,0m9.96-46.808a.944.944,0,0,0,.1-1.6,4.5,4.5,0,1,1,5.254,0,.944.944,0,0,0,.1,1.6,15.277,15.277,0,0,1,6.578,7.155,14.11,14.11,0,0,1-18.61,0,15.277,15.277,0,0,1,6.578-7.155M53.661,67.8a15.267,15.267,0,0,1,6.578-7.155.944.944,0,0,0,.1-1.593,4.5,4.5,0,1,1,5.251,0,.944.944,0,0,0,.1,1.593A15.267,15.267,0,0,1,72.271,67.8a14.1,14.1,0,0,1-18.61,0" fill="#040506"/>
</svg>