<svg xmlns="http://www.w3.org/2000/svg" width="62.75" height="55.218" viewBox="0 0 62.75 55.218">
  <path id="clube_futebol" data-name="clube futebol" d="M22.111,29.241V15.649c0-.472.494-.72.968-.72h7.217c.494,0,.7.494.7.946,0,.535-.248.987-.7.987H24.29v4.71h3.188c.453,0,.7.412.7.884a.752.752,0,0,1-.7.843H24.29v5.943c0,.494-.535.72-1.089.72-.535,0-1.091-.226-1.091-.72m14.519.845c2.817,0,4.688-1.584,4.688-3.845,0-.905-.349-1.132-1.11-1.132-.6,0-1.03.185-1.071.72-.082.905-.267,2.324-2.365,2.324-1.623,0-2.509-.843-2.509-2.653V19.515c0-1.81.886-2.653,2.468-2.653a2.125,2.125,0,0,1,2.406,2.2c.021.494.433.72,1.091.72.741,0,1.091-.2,1.091-1.132,0-2.179-1.851-3.72-4.669-3.72-2.487,0-4.565,1.253-4.565,4.585V25.5c0,3.332,2.056,4.587,4.546,4.587m-29.1-8.479a1.024,1.024,0,0,0,.109-.006.928.928,0,0,0,.814-1.03A38.316,38.316,0,0,1,8.637,10.34a.145.145,0,0,1,.156-.119c.24.016.431.023.585.023a10.693,10.693,0,0,0,6.844-2.419,9.036,9.036,0,0,0,3.283-5.97H43.243a9.036,9.036,0,0,0,3.283,5.97,10.693,10.693,0,0,0,6.844,2.419c.152,0,.345-.008.576-.023a.145.145,0,0,1,.156.119,38.463,38.463,0,0,1,.191,10.229.927.927,0,1,0,1.842.213,40.184,40.184,0,0,0-.2-10.72A2.016,2.016,0,0,0,53.821,8.37c-.236.016-.375.02-.451.02A8.831,8.831,0,0,1,47.713,6.4a7.188,7.188,0,0,1-2.63-4.788A1.789,1.789,0,0,0,43.294,0H19.455a1.789,1.789,0,0,0-1.789,1.61A7.188,7.188,0,0,1,15.036,6.4,8.831,8.831,0,0,1,9.379,8.389c-.111,0-.265-.006-.46-.02A2.01,2.01,0,0,0,6.8,10.059a40.227,40.227,0,0,0-.2,10.726.931.931,0,0,0,.921.821M62.359,45.76c-.843.806-1.682,1.635-2.5,2.472.232,1.188.449,2.394.644,3.588a1.264,1.264,0,0,1-1.241,1.463,1.309,1.309,0,0,1-.394-.062,98.03,98.03,0,0,0-14-3.44l0,0h-.01q-.059-.012-.117-.029l-.025-.01a.909.909,0,0,1-.23-.115l-.02-.014a.9.9,0,0,1-.1-.08l-.018-.018c-.025-.027-.051-.057-.074-.086l-.012-.016A.9.9,0,0,1,44.2,49.3l-.012-.025a.733.733,0,0,1-.053-.121l0-.008-.006-.02c-.006-.02-.012-.039-.016-.059l-.008-.035-.008-.053-.006-.043,0-.045a.238.238,0,0,1,0-.053v-.037l.006-.057,0-.021.447-3.069c-.164-.023-.326-.047-.488-.068a47.264,47.264,0,0,1-5.779,5l-5.839,4.278a1.8,1.8,0,0,1-2.128,0L24.471,50.59a47.1,47.1,0,0,1-5.779-5c-.162.021-.326.047-.488.068l.447,3.069,0,.021,0,.057,0,.037V48.9l0,.045,0,.043-.008.053-.008.035c0,.02-.01.039-.016.059l-.006.02,0,.008a.945.945,0,0,1-.053.121l-.012.025a1.243,1.243,0,0,1-.068.107l-.012.016c-.023.029-.049.059-.074.086l-.018.018a.76.76,0,0,1-.1.08l-.018.014a.909.909,0,0,1-.23.115l-.025.01a.81.81,0,0,1-.119.027l-.008,0h0a98.325,98.325,0,0,0-14,3.441,1.3,1.3,0,0,1-.392.062,1.264,1.264,0,0,1-1.241-1.463c.193-1.194.41-2.4.644-3.588-.814-.835-1.654-1.664-2.5-2.472a1.261,1.261,0,0,1,.48-2.111c2.041-.661,4.124-1.27,6.206-1.814l-.644-2.786A1.307,1.307,0,0,1,7.4,37.486q2.207-.524,4.421-.95A41.658,41.658,0,0,1,7.358,25.158a.929.929,0,0,1,1.81-.416,39.836,39.836,0,0,0,4.594,11.44q1.214-.211,2.431-.394a38.518,38.518,0,0,1-2.819-5.416,36.782,36.782,0,0,1-2.825-16.46,1.787,1.787,0,0,1,1.432-1.645,12.258,12.258,0,0,0,8.965-7.045,1.791,1.791,0,0,1,1.645-1.091H40.159A1.789,1.789,0,0,1,41.8,5.223a12.258,12.258,0,0,0,8.967,7.045,1.783,1.783,0,0,1,1.43,1.645,36.755,36.755,0,0,1-2.825,16.46,38.3,38.3,0,0,1-2.817,5.416q1.214.181,2.429.392a39.828,39.828,0,0,0,4.594-11.456.928.928,0,1,1,1.809.414,41.65,41.65,0,0,1-4.462,11.4q2.2.424,4.4.946a1.305,1.305,0,0,1,.968,1.561l-.644,2.786c2.088.544,4.179,1.157,6.227,1.82a1.261,1.261,0,0,1,.48,2.111M18.217,35.507a102.256,102.256,0,0,1,26.316,0,36.65,36.65,0,0,0,3.131-5.857,34.872,34.872,0,0,0,2.685-15.574A14.1,14.1,0,0,1,40.112,5.987H22.637A14.105,14.105,0,0,1,12.4,14.076a34.9,34.9,0,0,0,2.686,15.574,36.651,36.651,0,0,0,3.131,5.857M13.87,48.649c-1.6-.46-3.213-.882-4.868-1.274a.908.908,0,0,1-.392-.131.924.924,0,0,1-.416-.581l-.7-3.016c-1.709.447-3.42.935-5.1,1.465.693.675,1.377,1.362,2.045,2.05a1.26,1.26,0,0,1,.332,1.124c-.189.95-.367,1.912-.533,2.87,3.2-1,6.385-1.832,9.634-2.507m2.731-1.12-.232-1.59q-1.61.26-3.219.579c1.157.318,2.3.654,3.451,1.011M41.712,45.3q-1.533-.17-3.065-.291c-.905.786-1.85,1.543-2.811,2.247l-3.4,2.5a1.786,1.786,0,0,1-2.117,0l-3.4-2.5c-.962-.7-1.9-1.461-2.809-2.247q-1.533.12-3.065.293a45.527,45.527,0,0,0,4.53,3.793l5.806,4.253,5.808-4.253a45.5,45.5,0,0,0,4.53-3.795m-13.7.46,3.365,2.466,3.365-2.466c.408-.3.81-.609,1.21-.923q-4.574-.225-9.148,0c.4.314.8.624,1.208.923m17.742-1.8q3.6.55,7.185,1.372l1.426-6.171a101.022,101.022,0,0,0-46,.006l1.428,6.171q3.594-.828,7.2-1.375l.025-.006.02,0c.607-.092,1.213-.179,1.82-.259.021,0,.041-.006.062-.008q2.672-.354,5.35-.554a.87.87,0,0,1,.123-.01,94.63,94.63,0,0,1,13.953,0,.782.782,0,0,1,.135.01q2.666.2,5.332.552c.023,0,.049.006.074.01.607.08,1.215.168,1.822.259l.018,0,.021,0m.4,3.568c1.147-.357,2.294-.693,3.451-1.011q-1.61-.316-3.221-.579Zm14.209-2.417c-1.691-.533-3.408-1.022-5.125-1.471l-.7,3.018,0,.014-.016.053-.012.035-.018.047-.018.039-.021.041-.021.039-.025.039L54.377,47l-.031.037-.025.031-.037.039-.025.025a.412.412,0,0,1-.045.037l-.025.02c-.016.014-.033.023-.049.035l-.02.014-.006,0-.053.029-.029.014-.049.021-.037.016-.045.014-.047.014-.012,0c-1.69.4-3.332.827-4.965,1.3,3.25.675,6.434,1.5,9.634,2.507-.164-.958-.341-1.92-.531-2.87a1.257,1.257,0,0,1,.332-1.124c.667-.691,1.354-1.377,2.045-2.05" transform="translate(0)" fill="#040506"/>
</svg>
