<svg xmlns="http://www.w3.org/2000/svg" width="42.82" height="48.257" viewBox="0 0 42.82 48.257">
  <path id="contrato" d="M29.5,13.657a.615.615,0,0,1-.615.615H5.679a.615.615,0,1,1,0-1.229h23.2a.615.615,0,0,1,.615.615M5.679,9.327h11.6a.615.615,0,1,0,0-1.229H5.679a.615.615,0,1,0,0,1.229m23.2,8.1H5.679a.615.615,0,0,0,0,1.229h23.2a.615.615,0,1,0,0-1.229M11.58,44.117a.614.614,0,0,1-.615.615H3.538A3.542,3.542,0,0,1,0,41.194V3.538A3.542,3.542,0,0,1,3.538,0H24.932a2.836,2.836,0,0,1,1.131.242.7.7,0,0,1,.085.045,2.826,2.826,0,0,1,.786.541l6.8,6.8a2.823,2.823,0,0,1,.553.8c.01.02.022.037.031.058a2.827,2.827,0,0,1,.245,1.14V21.768a.615.615,0,1,1-1.229,0V9.63a1.569,1.569,0,0,0-.06-.3h-4.5a3.542,3.542,0,0,1-3.538-3.538v-4.5a1.5,1.5,0,0,0-.3-.06H3.538A2.311,2.311,0,0,0,1.229,3.538V41.194A2.311,2.311,0,0,0,3.538,43.5h7.427a.615.615,0,0,1,.615.615M26.464,2.1V5.789A2.311,2.311,0,0,0,28.772,8.1h3.691ZM42.1,36.857l-1.468.87a2.585,2.585,0,0,1-2.416.139l-1.125.656a2.287,2.287,0,0,1-2.627,3.64A2.29,2.29,0,0,1,31.5,44.246a2.294,2.294,0,0,1-3.462,1.923l-.138-.081a2.294,2.294,0,0,1-3.458,1.85l-1.8-1.063a2.274,2.274,0,0,1-1.433.859,2.426,2.426,0,0,1-.376.031,2.28,2.28,0,0,1-2.164-1.571,2.312,2.312,0,0,1-1.006.235,2.288,2.288,0,0,1-2.258-1.92c0-.03,0-.06-.006-.09a2.313,2.313,0,0,1-.46.053,2.291,2.291,0,0,1-2.26-1.919c0-.031,0-.06-.006-.09a2.313,2.313,0,0,1-.46.053,2.291,2.291,0,0,1-1.859-3.628l.708-.987-.457-.27a2.661,2.661,0,0,1-2.879.1l-1.468-.87a1.466,1.466,0,0,1-.514-2.008l6.039-10.2a1.469,1.469,0,0,1,2.008-.514l1.469.87a2.659,2.659,0,0,1,1.263,2.817l.441.259a2.289,2.289,0,0,0,2,.167l1.37-.53c1.522-.588,2.374-.334,3.825.5.091-.032.179-.07.274-.095l2.368-.6a3.08,3.08,0,0,1,1.893.119l1.545.607a2.279,2.279,0,0,0,1.692-.03A2.686,2.686,0,0,1,33.1,25.01l1.469-.87a1.464,1.464,0,0,1,2.008.515l6.039,10.194a1.466,1.466,0,0,1-.514,2.008m-31.745-.7,4.793-8.091a1.459,1.459,0,0,0-.511-2l-1.469-.87a.241.241,0,0,0-.12-.033.232.232,0,0,0-.2.116L6.806,35.475a.267.267,0,0,0,.082.323l1.469.87a1.461,1.461,0,0,0,2-.511m2.036,5.115a1.052,1.052,0,0,0,.691-.428l.952-1.325a1.063,1.063,0,0,0-1.727-1.238l-.95,1.323a1.063,1.063,0,0,0,1.035,1.668M15.809,42.8l2-2.785a1.063,1.063,0,1,0-1.727-1.238l-2,2.783a1.062,1.062,0,0,0,.243,1.483,1.063,1.063,0,0,0,1.483-.243m2.724,1.956.446-.621.665-.926h0l.888-1.236a1.063,1.063,0,0,0-1.726-1.24l-2,2.785A1.063,1.063,0,0,0,17.05,45a1.063,1.063,0,0,0,1.483-.243M21.7,46.092l.665-.926A1.063,1.063,0,0,0,21.333,43.5a1.05,1.05,0,0,0-.69.429l-.665.926A1.062,1.062,0,1,0,21.7,46.092m14.751-6.275a1.065,1.065,0,0,0-.489-.652.227.227,0,0,0-.179-.106l-9.332-5.526a3.058,3.058,0,0,1-2.928,2.182A1.427,1.427,0,0,1,22.1,34.291V31.13a3.088,3.088,0,0,1,.879-2.15,2.239,2.239,0,0,0-2.2-.111l-1.37.531a3.523,3.523,0,0,1-3.073-.256l-.3-.176L11.46,36.705l.467.275a2.293,2.293,0,0,1,2.58.058,2.258,2.258,0,0,1,.713.864,2.275,2.275,0,0,1,3.989,1.212c.03-.006.058-.018.087-.023a2.29,2.29,0,0,1,2.467,3.187,2.277,2.277,0,0,1,1.607,3.6l1.7,1a1.063,1.063,0,1,0,1.084-1.829l-1.377-.816a.614.614,0,1,1,.626-1.057l1.378.816.006,0,1.88,1.114a1.063,1.063,0,1,0,1.084-1.829L26.235,41.2a.614.614,0,1,1,.626-1.057l3.515,2.083,0,0,1.255.743a1.063,1.063,0,0,0,1.087-1.828h0l-4.771-2.826a.615.615,0,0,1,.627-1.057l4.77,2.826h0l1.535.91a1.064,1.064,0,0,0,1.572-1.178m5.1-4.342L35.519,25.281a.234.234,0,0,0-.144-.108.239.239,0,0,0-.179.025l-1.469.872a1.458,1.458,0,0,0-.511,2l.074.124h0l.771,1.3a.614.614,0,1,1-1.056.626l-.487-.82a3.5,3.5,0,0,1-2.718.1l-1.549-.609a1.841,1.841,0,0,0-1.141-.073l-2.369.6a1.865,1.865,0,0,0-1.41,1.811v3.161a.177.177,0,0,0,.2.2,1.824,1.824,0,0,0,1.823-1.823v-.134A.614.614,0,0,1,26.279,32l9.742,5.768a3.6,3.6,0,0,1,.406-.28l.74-.432a2.619,2.619,0,0,1-.216-.274L34.7,32.991a.614.614,0,1,1,1.056-.626l2.246,3.791a1.464,1.464,0,0,0,2,.511l1.469-.87a.237.237,0,0,0,.082-.323" transform="translate(0 -0.001)" fill="#fff"/>
</svg>
