<svg xmlns="http://www.w3.org/2000/svg" width="67.021" height="67.021" viewBox="0 0 67.021 67.021">
  <path id="familia" d="M31.01,57.352h-.569V51.531c.71-7.274-6.029-12.28-7.461-13.255l-3.619-10a3.914,3.914,0,0,0-7.5,2.208L13.5,37.7,8.449,29.982,8.368,13.969A6.182,6.182,0,0,0,3.7,8,2.3,2.3,0,0,0,.857,10.134L.006,32.168a8.035,8.035,0,0,0,1.733,5.307l13.3,16.777v3.1h-.565a.859.859,0,0,0-.859.861v7.949a.858.858,0,0,0,.859.859H31.01a.858.858,0,0,0,.859-.859V58.213a.859.859,0,0,0-.859-.861M3.082,36.4A6.325,6.325,0,0,1,1.72,32.236L2.573,10.2c.083-.438.268-.577.71-.535a4.462,4.462,0,0,1,3.37,4.31l.081,16.267a.872.872,0,0,0,.141.467l7.8,11.908a.858.858,0,0,0,1.554-.662L13.539,30.1a2.2,2.2,0,0,1,4.209-1.241l3.717,10.269a.857.857,0,0,0,.347.434c.077.048,7.619,4.923,6.917,11.838a.654.654,0,0,0,0,.087v5.863H16.758v-3.4a.859.859,0,0,0-.187-.535ZM30.153,65.3H15.334v-6.23h14.82ZM66.164,10.134A2.3,2.3,0,0,0,63.319,8a6.179,6.179,0,0,0-4.667,5.969l-.081,16.013L53.521,37.7l1.635-7.214a3.914,3.914,0,0,0-7.5-2.208l-3.621,10c-1.43.975-8.169,5.981-7.459,13.255v5.821h-.571a.858.858,0,0,0-.857.861v7.949a.858.858,0,0,0,.857.859H52.545a.858.858,0,0,0,.859-.859V58.213a.859.859,0,0,0-.859-.861h-.565v-3.1l4.373-5.514a.865.865,0,0,0-.139-1.21.855.855,0,0,0-1.2.139l-4.558,5.749a.855.855,0,0,0-.187.535v3.4H38.3V51.489c0-.029,0-.06,0-.087-.7-6.917,6.84-11.79,6.915-11.838a.861.861,0,0,0,.349-.434L49.273,28.86A2.2,2.2,0,0,1,53.482,30.1L50.8,41.957a.858.858,0,0,0,1.554.662l7.8-11.908a.872.872,0,0,0,.141-.467l.081-16.267a4.462,4.462,0,0,1,3.37-4.31c.442-.042.627.1.71.535L65.3,32.236A6.325,6.325,0,0,1,63.939,36.4L59.431,42.09a.859.859,0,1,0,1.343,1.071l4.508-5.686a8.056,8.056,0,0,0,1.733-5.307ZM51.688,65.3H36.868v-6.23h14.82ZM58.95,45.18a1,1,0,1,1-1-1,1,1,0,0,1,1,1m-31.969-32.9a6.515,6.515,0,0,0,.776,3.09,10.131,10.131,0,0,0-4.317,8.281v3.368a3.153,3.153,0,0,0,3.146,3.154h13.84a3.153,3.153,0,0,0,3.146-3.154V23.647a10.134,10.134,0,0,0-4.317-8.281,6.529,6.529,0,1,0-12.272-3.09M41.855,23.647v3.368a1.433,1.433,0,0,1-1.43,1.434H26.585a1.433,1.433,0,0,1-1.43-1.434V23.647a8.4,8.4,0,0,1,3.607-6.886,6.5,6.5,0,0,0,9.486,0,8.4,8.4,0,0,1,3.607,6.886M33.5,7.455A4.821,4.821,0,1,1,28.7,12.276,4.82,4.82,0,0,1,33.5,7.455m2.264-4.246A6.531,6.531,0,0,1,47.135,9.636a10.128,10.128,0,0,1,4.313,8.277v3.368A3.153,3.153,0,0,1,48.3,24.435H47a.86.86,0,0,1,0-1.72h1.3a1.434,1.434,0,0,0,1.43-1.434V17.914a8.4,8.4,0,0,0-3.6-6.88A6.519,6.519,0,0,1,42.914,12.9a.86.86,0,0,1-.4-1.673,4.82,4.82,0,1,0-5.271-7.141.858.858,0,1,1-1.474-.878M15.561,21.281V17.914a10.132,10.132,0,0,1,4.311-8.277A6.531,6.531,0,0,1,31.242,3.209a.858.858,0,1,1-1.474.878A4.813,4.813,0,1,0,24.5,11.228a.86.86,0,0,1-.4,1.673,6.528,6.528,0,0,1-3.221-1.868,8.4,8.4,0,0,0-3.6,6.88v3.368a1.433,1.433,0,0,0,1.43,1.434h1.3a.86.86,0,0,1,0,1.72h-1.3a3.153,3.153,0,0,1-3.146-3.154" transform="translate(0)" fill="#040506"/>
</svg>
