<svg xmlns="http://www.w3.org/2000/svg" width="64.4" height="58.684" viewBox="0 0 64.4 58.684">
  <path id="missao" d="M64.1,55.608l-13.537-22a2.019,2.019,0,0,0-3.438,0l-1.756,2.856a.944.944,0,1,0,1.608.99L48.737,34.6a.12.12,0,0,1,.11-.061.116.116,0,0,1,.108.061l13.537,22a.129.129,0,0,1-.108.2h-7.5L33.919,22.718A2,2,0,0,0,33.171,22V15.592a8.774,8.774,0,0,0,2.3.305,17.821,17.821,0,0,0,6.147-1.482c2.736-1.016,5.32-1.974,8.113-.854a1.168,1.168,0,0,0,1.6-1.084V1.8A1.17,1.17,0,0,0,50.626.724C47.08-.787,43.97.366,40.963,1.482c-2.818,1.047-5.479,2.033-8.376.738a.946.946,0,0,0-1.33.864v.035a.977.977,0,0,0-.026.218V22a2,2,0,0,0-.748.714L20.527,38.9l-3.253-5.288a2.019,2.019,0,0,0-3.438,0L.3,55.608a2.02,2.02,0,0,0,1.72,3.076H62.384A2.018,2.018,0,0,0,64.1,55.608M33.145,4.424c3.059.84,5.806-.181,8.475-1.171,2.639-.98,5.141-1.907,7.827-.96v9.179c-3.068-.84-5.818.181-8.485,1.171-2.635.978-5.135,1.905-7.818.96ZM11.733,56.795l3.242-5.269a.945.945,0,0,0-1.61-.99l-3.85,6.259h-7.5a.117.117,0,0,1-.112-.065.118.118,0,0,1,0-.13l13.537-22a.128.128,0,0,1,.218,0l3.753,6.1L15.67,46.791a.945.945,0,1,0,1.61.99L32.092,23.708a.116.116,0,0,1,.108-.061.12.12,0,0,1,.11.061L52.667,56.795Z" transform="translate(-0.001 0)" fill="#fff"/>
</svg>
