<svg xmlns="http://www.w3.org/2000/svg" width="390" height="78.161" viewBox="0 0 390 78.161">
  <g id="logo" transform="translate(0 0)">
    <path id="Caminho_67" data-name="Caminho 67" d="M31.1,42.918c0,.237-.292.355-.875.355H19.81c-.583,0-.875-.126-.875-.376,0-.28.4-.421,1.211-.421q2.135,0,2.594-.458a8.567,8.567,0,0,0,.209-2.807V17.517q0,.043-.5,1.464-1.682,5.056-4.872,15.212l-1.942,6.656q-.586,1.966-.837,1.966-.293,0-.628-1Q12.963,38.005,7.34,22.816L5.682,18.354V34.116q0,7.651.125,7.737.291.543,2.006.543c.92,0,1.38.14,1.38.416q0,.462-.878.461a5.625,5.625,0,0,1-1-.083,7.3,7.3,0,0,0-1.046-.084l-4.808.167c-.5,0-.753-.126-.753-.376q0-.419,2.382-.461c.67,0,1.061-.11,1.171-.335a7.445,7.445,0,0,0,.168-2.178V19.866q0-3.474-.083-3.768a1.142,1.142,0,0,0-.711-.8,10.079,10.079,0,0,0-2.341-.335c-.448-.027-.67-.153-.67-.376,0-.307.407-.46,1.226-.46H4.765c1.665,0,2.833-.011,3.511-.032q.207.546,2.426,6.581.956,2.514,5.355,14.666.8-2.725,1.652-5.37L22.177,16.16q.415-1.2.739-1.988l6.168-.041a4.964,4.964,0,0,1,1.561.126.413.413,0,0,1,.206.376q0,.422-.711.421a9.768,9.768,0,0,0-1.589.083,2.08,2.08,0,0,0-1.38.672,24.782,24.782,0,0,0-.21,4.907v19.5c0,1.118.113,1.776.335,1.97a5.858,5.858,0,0,0,2.717.377h.252c.556,0,.836.119.836.356m19.905.062c0,.167-.28.252-.837.252H41.932q-.753,0-.753-.334t1.506-.374c1.2-.027,1.8-.165,1.8-.413a5.763,5.763,0,0,0-.251-.789q-.088-.331-.963-2.783l-.5-1.413H36.79A27.265,27.265,0,0,0,35.075,42.1c0,.251.167.392.5.419l.544.041h.627l.376.126c.335,0,.5.084.5.252q0,.291-.878.292c-.084,0-.579-.023-1.483-.063s-1.709-.063-2.4-.063h-.377l-.376.063-.46.063h-.084c-.445,0-.669-.086-.669-.252,0-.2.18-.307.544-.335q.753-.041,1-.084a1.593,1.593,0,0,0,.918-.376,29.628,29.628,0,0,0,2.05-4.779q.71-1.887,1.38-3.523A8.209,8.209,0,0,0,37.125,33a7.92,7.92,0,0,1,.334-.881q.712-1.718,2.008-5.2l.631-1.754.289-.754q.25-.627.5-.627c.081,0,.265.389.543,1.171q1.253,3.052,6.48,16.138.5,1.3.963,1.381a12.331,12.331,0,0,0,1.338.125c.531.027.8.153.8.376m-8.491-6.563-2.69-7.146q-1.017,2.509-2.794,7.146ZM68.4,24.458c0,.167-.18.264-.544.293A3.789,3.789,0,0,0,66,25.21a16.977,16.977,0,0,0-1.862,3.261q-1.3,2.635-2.592,4.851a5.379,5.379,0,0,0-.625,1.3,8.551,8.551,0,0,0-.086,1.546v5.186c0,.558.086.885.252.981a5.8,5.8,0,0,0,1.715.23c.5.029.751.141.751.335s-.2.293-.585.293H55.186c-.361,0-.544-.1-.544-.293,0-.222.412-.349,1.235-.376s1.3-.111,1.422-.252a3.035,3.035,0,0,0,.186-1.462V35.246c-.165-.335-.418-.824-.751-1.465l-2.885-5.1q-.627-1.17-1-1.882t-.878-1.59c-.251-.277-.95-.431-2.089-.458-.364,0-.544-.1-.544-.293,0-.222.18-.335.544-.335H57.9c.418,0,.627.113.627.335,0,.2-.361.293-1.087.293q-1.673,0-1.674.543,0,.67,4.433,8.2a90.956,90.956,0,0,0,4.264-8.36c0-.222-.237-.35-.711-.377h-1.13c-.472,0-.706-.111-.706-.335,0-.2.234-.293.706-.293h2.638Q68.4,24,68.4,24.458M84.874,38.693c0,.029-.024.206-.065.532a7.148,7.148,0,0,0-.062.872v2.424a3.154,3.154,0,0,0,.126.836L77.9,43.232l-7.986.125c-.589,0-.885-.111-.885-.332,0-.252.17-.377.5-.377a3.494,3.494,0,0,0,1.569-.189c.153-.126.228-.579.228-1.36V26.716c0-1.144-.1-1.749-.293-1.818a5.878,5.878,0,0,0-1.464-.1c-.334,0-.5-.1-.5-.293,0-.222.18-.335.541-.335h14.3v.287l.042.619q.086.618.334,3.708a2.375,2.375,0,0,1,.044.5c0,.356-.1.535-.293.535-.248,0-.428-.278-.541-.837q-.582-3.176-2.2-3.721a18.883,18.883,0,0,0-4.331-.292H74.836V32.78h1a7.2,7.2,0,0,0,3.278-.439c.415-.295.69-1.094.83-2.406q.124-1.17.5-1.171.419,0,.419.837c0,.334-.021.851-.065,1.546s-.062,1.226-.062,1.589q0,2.719.095,3.721c.021.225.032.406.032.544,0,.446-.14.669-.412.669-.249,0-.416-.349-.5-1.044q-.246-2.259-.824-2.7t-3.26-.439H74.836v9.032a47.085,47.085,0,0,0,7.2-.335q1.664-.46,1.954-4.014c.03-.418.183-.627.463-.627s.418.382.418,1.148m19.106,3.452q0,1.337-2.334,1.336a4.54,4.54,0,0,1-3.664-1.706,4.057,4.057,0,0,1-.834-1.5,28.735,28.735,0,0,1-.5-3.541,3.478,3.478,0,0,0-1.147-2.5,5.871,5.871,0,0,0-3.23-.791V42.06c-.081.391.616.588,2.1.588.3,0,.452.1.452.292s-.194.293-.585.293h-6.73c-.783,0-1.171-.092-1.171-.274,0-.207.135-.311.415-.311h.585q1.425,0,1.423-.588V25.545a.669.669,0,0,0-.228-.606,2.926,2.926,0,0,0-1.214-.146c-.654,0-.98-.113-.98-.335,0-.194.194-.293.585-.293h7.9a7.9,7.9,0,0,1,4.5,1.145,3.49,3.49,0,0,1,1.7,3.016,3.889,3.889,0,0,1-1.8,3.311,9.792,9.792,0,0,1-5.06,1.477q3.512.374,4.832,1.832t1.692,5.243q.25,2.583,1.548,2.58c.14,0,.207-.041.207-.122a1.277,1.277,0,0,0-.1-.265.851.851,0,0,1-.105-.346q0-.773.837-.772.917,0,.918.879m-6.6-13.526q0-3.744-3.693-3.744a2.258,2.258,0,0,0-1.184.188c-.15.123-.228.422-.228.893V32.78q5.1,0,5.105-4.16M112.8,42.939a4.757,4.757,0,0,1-2.341,4.432,5.754,5.754,0,0,1-2.759,1c-.221,0-.334-.083-.334-.249s.14-.28.418-.335q3.512-.839,3.512-3.595a2.53,2.53,0,0,0-.918-2.3,1.388,1.388,0,0,1-1.549,1.589,1.833,1.833,0,0,1-1.357-.57,1.924,1.924,0,0,1-.565-1.414,2.392,2.392,0,0,1,.711-1.793,2.463,2.463,0,0,1,1.8-.7,3.061,3.061,0,0,1,2.447,1.109,4.221,4.221,0,0,1,.939,2.822m31.525-7.359a6.7,6.7,0,0,1-3.886,6.313,13.823,13.823,0,0,1-5.394,1.253q-.965.045-5.688.044h-5.1c-.473,0-.711-.12-.711-.356s.431-.355,1.3-.355q1.506,0,1.776-.314a3.727,3.727,0,0,0,.272-1.9V17.643a6.956,6.956,0,0,0-.167-2.133q-.291-.5-2.13-.544c-.756,0-1.13-.146-1.13-.44,0-.265.347-.4,1.044-.4h.5a3.184,3.184,0,0,0,.837.125H134q4.518.043,6.734,1.506a5.6,5.6,0,0,1,2.592,4.976A5.848,5.848,0,0,1,141.19,25.4a11.045,11.045,0,0,1-5.978,2.278v.251a12.755,12.755,0,0,1,5.938,1.59,6.687,6.687,0,0,1,3.176,6.061m-5.6-14.426q0-4.01-1.841-5.35a6.53,6.53,0,0,0-3.637-.711q-.71,0-2.215.126V27.344h.374l2.3-.084a4.747,4.747,0,0,0,3.7-1.694,6.77,6.77,0,0,0,1.316-4.412m1.211,13.966q0-5.268-4.264-6.522a18.971,18.971,0,0,0-4.641-.376V40.68c0,.81.081,1.268.251,1.38a5.334,5.334,0,0,0,2.341.293,5.983,5.983,0,0,0,4.6-1.839,7.636,7.636,0,0,0,1.715-5.394m25.884,7.86c0,.167-.28.252-.837.252h-8.237c-.5,0-.753-.111-.753-.334s.5-.346,1.5-.374c1.2-.027,1.8-.165,1.8-.413a5.9,5.9,0,0,0-.252-.789q-.086-.331-.963-2.783l-.5-1.413H151.6a27.4,27.4,0,0,0-1.715,4.976c0,.251.167.392.5.419l.544.041h.627l.377.126q.5,0,.5.252,0,.291-.878.292c-.081,0-.579-.023-1.483-.063s-1.709-.063-2.4-.063h-.377l-.377.063-.46.063h-.081c-.446,0-.67-.086-.67-.252,0-.2.18-.307.544-.335.5-.027.837-.056,1-.084a1.588,1.588,0,0,0,.918-.376,29.725,29.725,0,0,0,2.048-4.779q.71-1.887,1.381-3.523a7.814,7.814,0,0,0,.334-.879,8.238,8.238,0,0,1,.334-.881q.715-1.718,2.008-5.2l.633-1.754.29-.754q.25-.627.5-.627c.083,0,.266.389.546,1.171q1.249,3.052,6.479,16.138.5,1.3.962,1.381a12.383,12.383,0,0,0,1.338.125c.531.027.8.153.8.376m-8.49-6.563-2.692-7.146q-1.014,2.509-2.794,7.146Zm21.45,1.4a5.039,5.039,0,0,1-2.008,4,7.356,7.356,0,0,1-4.853,1.664,8.8,8.8,0,0,1-4.388-1.3,1.366,1.366,0,0,0-.334-.083c-.167,0-.266.134-.293.4a4.1,4.1,0,0,1-.126.688.385.385,0,0,1-.418.3.37.37,0,0,1-.419-.418c0-.054.029-.473.086-1.253s.081-1.45.081-2.008V37.67q0-.794.419-.794c.278,0,.49.431.63,1.3q.791,4.6,4.934,4.6,3.51,0,3.511-3.5a3.651,3.651,0,0,0-.837-2.5,11.1,11.1,0,0,0-3.26-2.166,16.794,16.794,0,0,1-4.056-2.5,4.209,4.209,0,0,1-1.129-3,4.817,4.817,0,0,1,1.67-3.769,6.153,6.153,0,0,1,4.223-1.477,7.216,7.216,0,0,1,3.389.962.738.738,0,0,0,.334.126c.194,0,.32-.2.377-.606s.222-.607.5-.607a.37.37,0,0,1,.419.418,2.67,2.67,0,0,1-.041.335,13.667,13.667,0,0,0-.086,1.713c0,.419.041,1.171.126,2.257a1.622,1.622,0,0,1,.041.377c0,.335-.113.5-.334.5-.252,0-.433-.248-.544-.744a5.426,5.426,0,0,0-1.525-2.922,3.779,3.779,0,0,0-2.7-1.1q-3.012,0-3.012,3.2a3.425,3.425,0,0,0,.8,2.331,3.5,3.5,0,0,0,.918.792c.338.194,1.31.678,2.926,1.456a13.25,13.25,0,0,1,3.849,2.559,4.137,4.137,0,0,1,1.13,2.893m18.142-8.583q0,.573-.5.573c-.364,0-.558-.257-.585-.768a6.622,6.622,0,0,0-.711-2.711q-.8-1.454-3.638-1.455c-.278,0-.711.014-1.3.041V41.726q0,.794,1.211.836c.81.029,1.214.141,1.214.335s-.239.293-.711.293h-6.815c-.559,0-.837-.1-.837-.293s.458-.308,1.381-.335a1.7,1.7,0,0,0,.667-.086.467.467,0,0,0,.377-.439q.041-.356.041-2.116V24.876q-3.26-.041-4.243.663t-1.316,3.317c-.086.637-.266.954-.546.954q-.376,0-.377-.948,0-1.193.377-4.7h9.743q1.3,0,5.266-.069a3.73,3.73,0,0,0,.882-.14l.041.86.126,1.473.126,1.719.081.738c.027.246.041.409.041.491M217.328,33.8a9.676,9.676,0,0,1-2.634,6.864,8.476,8.476,0,0,1-6.437,2.815,9.163,9.163,0,0,1-6.836-2.857,9.638,9.638,0,0,1-2.78-6.99,9.677,9.677,0,0,1,2.654-7.03,9.073,9.073,0,0,1,6.8-2.732,8.621,8.621,0,0,1,6.584,2.858,10,10,0,0,1,2.654,7.072m-3.93.125a13.068,13.068,0,0,0-1.964-7.635,4,4,0,0,0-3.47-1.793q-3.052,0-4.433,3.336a15.7,15.7,0,0,0-.96,5.924,12.69,12.69,0,0,0,1.5,6.716,4.687,4.687,0,0,0,4.182,2.42q5.14,0,5.141-8.969m19.357,3.892a5.026,5.026,0,0,1-2.008,4,7.344,7.344,0,0,1-4.848,1.664,8.785,8.785,0,0,1-4.39-1.3,1.319,1.319,0,0,0-.337-.083c-.167,0-.265.134-.292.4a4.452,4.452,0,0,1-.123.688.389.389,0,0,1-.418.3.37.37,0,0,1-.419-.418c0-.054.027-.473.081-1.253s.086-1.45.086-2.008V37.67q0-.794.419-.794t.625,1.3q.8,4.6,4.934,4.6,3.512,0,3.512-3.5a3.672,3.672,0,0,0-.834-2.5,11.149,11.149,0,0,0-3.263-2.166,16.729,16.729,0,0,1-4.056-2.5,4.216,4.216,0,0,1-1.13-3,4.806,4.806,0,0,1,1.674-3.769,6.14,6.14,0,0,1,4.223-1.477,7.21,7.21,0,0,1,3.386.962.723.723,0,0,0,.337.126c.194,0,.32-.2.374-.606s.224-.607.5-.607a.37.37,0,0,1,.418.418,2.893,2.893,0,0,1-.044.335,14.734,14.734,0,0,0-.081,1.713q0,.629.125,2.257a1.54,1.54,0,0,1,.042.377c0,.335-.113.5-.338.5-.248,0-.431-.248-.541-.744a5.447,5.447,0,0,0-1.527-2.922,3.769,3.769,0,0,0-2.695-1.1q-3.012,0-3.012,3.2a3.5,3.5,0,0,0,1.715,3.123q.5.291,2.926,1.456a13.292,13.292,0,0,1,3.846,2.559,4.128,4.128,0,0,1,1.129,2.893m81.548-4c0-.027-.032.349-.086,1.129q-.169,2.342-.167,4.683,0,.293.083,1.067a17.258,17.258,0,0,1,.084,1.859v.377c0,.361-.113.543-.334.543s-.418-.209-.585-.627a3.674,3.674,0,0,0-1.171-1.8,10.613,10.613,0,0,1-7.233,2.635,13.389,13.389,0,0,1-10.182-4.286A15.137,15.137,0,0,1,290.678,28.6a15.536,15.536,0,0,1,3.7-10.724,12.2,12.2,0,0,1,9.555-4.16,13.192,13.192,0,0,1,3.408.355,14.434,14.434,0,0,1,3.154,1.443,3.182,3.182,0,0,0,1.381.543c.252,0,.487-.222.712-.667q.541-1.172.878-1.171a.3.3,0,0,1,.334.334,2.875,2.875,0,0,1-.083.544,39.72,39.72,0,0,0-.463,7.526,1.837,1.837,0,0,1-.122.918.458.458,0,0,1-.337.126q-.419,0-.541-.8a14.222,14.222,0,0,0-1.548-4.974,7,7,0,0,0-6.438-3.345,6.729,6.729,0,0,0-5.353,2.259q-3.557,4.055-3.554,11.874,0,6.984,2.926,10.828a8.1,8.1,0,0,0,6.773,3.345,7.5,7.5,0,0,0,3.972-1.088,7.377,7.377,0,0,0,2.783-2.989,17.767,17.767,0,0,0,1.524-4.578c.14-.669.32-1,.544-1q.419,0,.419.628m21.739-.021a9.681,9.681,0,0,1-2.633,6.864,8.481,8.481,0,0,1-6.438,2.815,9.164,9.164,0,0,1-6.836-2.857,9.637,9.637,0,0,1-2.779-6.99,9.671,9.671,0,0,1,2.654-7.03,9.067,9.067,0,0,1,6.794-2.732,8.621,8.621,0,0,1,6.584,2.858,10,10,0,0,1,2.654,7.072m-3.93.125a13.079,13.079,0,0,0-1.963-7.635,4.005,4.005,0,0,0-3.472-1.793q-3.052,0-4.433,3.336a15.731,15.731,0,0,0-.959,5.924,12.7,12.7,0,0,0,1.5,6.716,4.687,4.687,0,0,0,4.182,2.42q5.14,0,5.141-8.969m19.361,3.892a5.039,5.039,0,0,1-2.008,4,7.359,7.359,0,0,1-4.853,1.664,8.8,8.8,0,0,1-4.388-1.3,1.367,1.367,0,0,0-.334-.083c-.167,0-.266.134-.293.4a4.1,4.1,0,0,1-.126.688.385.385,0,0,1-.418.3.37.37,0,0,1-.419-.418c0-.054.027-.473.086-1.253s.081-1.45.081-2.008V37.67q0-.794.419-.794c.278,0,.49.431.63,1.3q.791,4.6,4.934,4.6,3.51,0,3.511-3.5a3.658,3.658,0,0,0-.837-2.5,11.1,11.1,0,0,0-3.26-2.166,16.794,16.794,0,0,1-4.056-2.5,4.208,4.208,0,0,1-1.129-3,4.817,4.817,0,0,1,1.67-3.769,6.153,6.153,0,0,1,4.223-1.477,7.221,7.221,0,0,1,3.389.962.738.738,0,0,0,.334.126c.194,0,.32-.2.377-.606s.222-.607.5-.607a.37.37,0,0,1,.419.418,2.49,2.49,0,0,1-.042.335,14.008,14.008,0,0,0-.084,1.713c0,.419.041,1.171.126,2.257a1.623,1.623,0,0,1,.041.377c0,.335-.113.5-.334.5-.252,0-.433-.248-.544-.744a5.426,5.426,0,0,0-1.525-2.922,3.779,3.779,0,0,0-2.7-1.1q-3.012,0-3.012,3.2a3.425,3.425,0,0,0,.8,2.331,3.5,3.5,0,0,0,.918.792q.5.291,2.926,1.456a13.25,13.25,0,0,1,3.849,2.559,4.143,4.143,0,0,1,1.13,2.893m18.142-8.583q0,.573-.5.573c-.364,0-.558-.257-.585-.768a6.621,6.621,0,0,0-.711-2.711q-.8-1.454-3.638-1.455c-.278,0-.711.014-1.3.041V41.726q0,.794,1.211.836c.809.029,1.214.141,1.214.335s-.239.293-.711.293h-6.815c-.559,0-.837-.1-.837-.293s.458-.308,1.381-.335a1.7,1.7,0,0,0,.667-.086.467.467,0,0,0,.377-.439q.041-.356.041-2.116V24.876q-3.262-.041-4.243.663t-1.316,3.317c-.086.637-.266.954-.546.954q-.376,0-.377-.948,0-1.193.377-4.7h9.743q1.3,0,5.266-.069a3.731,3.731,0,0,0,.882-.14l.041.86.126,1.473.125,1.719.083.738c.027.246.041.409.041.491M389.687,42.98c0,.167-.28.252-.837.252h-8.237c-.5,0-.753-.111-.753-.334s.5-.346,1.5-.374c1.2-.027,1.8-.165,1.8-.413a5.9,5.9,0,0,0-.253-.789q-.086-.331-.963-2.783l-.5-1.413h-5.978a27.337,27.337,0,0,0-1.716,4.976c0,.251.167.392.5.419l.544.041h.627l.377.126q.5,0,.5.252c0,.194-.292.292-.878.292-.081,0-.579-.023-1.483-.063s-1.709-.063-2.4-.063h-.377l-.377.063-.46.063h-.081c-.446,0-.67-.086-.67-.252,0-.2.18-.307.544-.335.5-.027.837-.056,1-.084a1.588,1.588,0,0,0,.918-.376,29.722,29.722,0,0,0,2.048-4.779q.71-1.887,1.383-3.523A8.041,8.041,0,0,0,375.8,33a8.234,8.234,0,0,1,.334-.881q.715-1.718,2.008-5.2l.633-1.754.29-.754q.25-.627.5-.627c.083,0,.266.389.546,1.171q1.249,3.052,6.479,16.138.5,1.3.962,1.381a12.383,12.383,0,0,0,1.338.125c.531.027.8.153.8.376m-8.49-6.563-2.692-7.146q-1.014,2.509-2.794,7.146Z" transform="translate(0.313 6.896)" fill="#fff"/>
    <path id="Caminho_68" data-name="Caminho 68" d="M287.442,77.943c0,.062-.105.1-.313.1H284.05c-.191,0-.283-.045-.283-.126s.186-.129.561-.14c.449-.011.673-.062.673-.156a1.845,1.845,0,0,0-.095-.293c-.02-.084-.14-.431-.358-1.041l-.189-.527h-2.236a10.316,10.316,0,0,0-.64,1.862c0,.092.062.143.188.153l.2.017h.234l.14.048c.126,0,.186.03.186.095s-.108.11-.326.11c-.03,0-.218-.011-.555-.024s-.64-.024-.9-.024h-.14l-.14.024-.173.024h-.032c-.165,0-.248-.035-.248-.1s.065-.116.2-.125c.186-.011.313-.021.377-.032a.577.577,0,0,0,.344-.143,11.269,11.269,0,0,0,.765-1.787c.177-.469.347-.908.514-1.316a2.924,2.924,0,0,0,.126-.326,2.981,2.981,0,0,1,.126-.331c.176-.428.428-1.079.751-1.943l.234-.657.11-.283c.06-.156.122-.234.186-.234.032,0,.1.147.2.439q.469,1.138,2.426,6.034c.123.323.245.5.358.517a4.387,4.387,0,0,0,.5.047c.2.011.3.059.3.14m-3.176-2.453-1.007-2.675q-.377.94-1.044,2.675Zm15.809-1.025a3.27,3.27,0,0,1-1.408,2.834,4.4,4.4,0,0,1-2.609.721h-3.036c-.177,0-.266-.051-.266-.149s.065-.126.188-.116h.361c.207.011.323-.048.344-.17a2.477,2.477,0,0,0,.03-.546v-5a4.552,4.552,0,0,0-.03-.792c-.051-.062-.236-.1-.549-.11-.186,0-.28-.033-.28-.108s.093-.126.28-.126h1.752a11.7,11.7,0,0,1,2.91.252,2.992,2.992,0,0,1,1.671,1.214,3.544,3.544,0,0,1,.642,2.092m-1.5-.054q0-3.242-2.613-3.239a2.128,2.128,0,0,0-.882.089,1.078,1.078,0,0,0-.084.568v5.518c0,.191.044.3.132.347a2.163,2.163,0,0,0,.678.062q2.771,0,2.77-3.345m14.76-3.424c0,.1-.087.137-.264.116a1.5,1.5,0,0,0-.6.1.74.74,0,0,0-.266.382l-.092.258q-.879,2.22-2.223,5.924c-.084.261-.167.391-.248.391s-.167-.119-.251-.358q-.624-1.72-1.821-4.818c-.108-.272-.262-.676-.463-1.217a1.181,1.181,0,0,0-.319-.571,1.935,1.935,0,0,0-.759-.086c-.116,0-.171-.03-.171-.095,0-.093.072-.14.218-.14h3.049c.272,0,.4.041.4.125s-.078.12-.234.14h-.579c-.323.011-.482.056-.482.126,0,.045.272.783.813,2.223.02.041.344.908.966,2.6q.113-.3.663-1.707l.648-1.725a7.277,7.277,0,0,0,.458-1.341c0-.105-.089-.164-.264-.174h-.61c-.084,0-.125-.03-.125-.095,0-.113.149-.17.452-.17h.751c.2.03.313.047.344.047a1.907,1.907,0,0,0,.3-.047h.469c.156,0,.234.038.234.111m12.7,3.523a3.626,3.626,0,0,1-.987,2.568,3.165,3.165,0,0,1-2.406,1.052,3.429,3.429,0,0,1-2.555-1.069,3.887,3.887,0,0,1-.048-5.243,3.384,3.384,0,0,1,2.538-1.02,3.229,3.229,0,0,1,2.465,1.069,3.738,3.738,0,0,1,.993,2.644m-1.47.047a4.891,4.891,0,0,0-.735-2.854,1.5,1.5,0,0,0-1.3-.67,1.732,1.732,0,0,0-1.658,1.249,5.841,5.841,0,0,0-.361,2.215,4.754,4.754,0,0,0,.562,2.511,1.762,1.762,0,0,0,1.564.9q1.925,0,1.924-3.356m14.913,1.307c0,.051-.092.081-.278.092h-.5c-.054.014-.092.059-.119.143a2.585,2.585,0,0,0-.038.562v.625a3.653,3.653,0,0,1-2.379.845,3.779,3.779,0,0,1-2.735-.974,3.434,3.434,0,0,1-1.014-2.6,3.78,3.78,0,0,1,.99-2.722,3.465,3.465,0,0,1,2.619-1.037,3.8,3.8,0,0,1,1.814.531.264.264,0,0,0,.14.048c.084,0,.143-.069.173-.2.062-.188.137-.28.218-.28s.126.041.126.123c0-.021-.01.068-.03.268-.032.3-.048.9-.048,1.8,0,.237-.062.361-.188.361-.095,0-.143-.065-.143-.188a2.453,2.453,0,0,0-.568-1.619,1.789,1.789,0,0,0-1.4-.6,1.85,1.85,0,0,0-1.644.936,4.751,4.751,0,0,0-.6,2.558,4.375,4.375,0,0,0,.6,2.463,1.866,1.866,0,0,0,1.637.906c.622,0,1.01-.194,1.156-.589a1.968,1.968,0,0,0,.078-.651,1.372,1.372,0,0,0-.071-.628,1.221,1.221,0,0,0-.586-.072h-.251c-.086,0-.126-.035-.126-.1,0-.089.126-.129.377-.129h2.516c.176,0,.265.045.265.14m12.573,2.078c0,.062-.1.1-.313.1h-3.079c-.188,0-.283-.045-.283-.126s.191-.129.565-.14c.445-.011.67-.062.67-.156a2.274,2.274,0,0,0-.092-.293c-.021-.084-.144-.431-.361-1.041l-.188-.527H346.73a9.918,9.918,0,0,0-.64,1.862c0,.092.062.143.186.153l.2.017h.234l.143.048c.123,0,.188.03.188.095s-.11.11-.331.11c-.03,0-.213-.011-.555-.024s-.636-.024-.9-.024h-.138l-.143.024-.171.024h-.03c-.167,0-.252-.035-.252-.1s.069-.116.2-.125c.188-.011.314-.021.374-.032a.568.568,0,0,0,.344-.143,10.776,10.776,0,0,0,.765-1.787c.177-.469.352-.908.518-1.316.06-.146.105-.255.125-.326a2.708,2.708,0,0,1,.126-.331c.177-.428.425-1.079.748-1.943l.234-.657.11-.283c.065-.156.126-.234.186-.234.032,0,.1.147.2.439q.471,1.138,2.423,6.034c.126.323.245.5.361.517a4.385,4.385,0,0,0,.5.047c.2.011.3.059.3.14M348.87,75.49l-1-2.675q-.383.94-1.044,2.675Zm15.809-1.025a3.272,3.272,0,0,1-1.41,2.834,4.4,4.4,0,0,1-2.609.721h-3.036c-.177,0-.264-.051-.264-.149s.065-.126.186-.116h.361c.207.011.323-.048.344-.17a2.478,2.478,0,0,0,.03-.546v-5a4.554,4.554,0,0,0-.03-.792c-.051-.062-.234-.1-.549-.11-.186,0-.278-.033-.278-.108s.092-.126.278-.126h1.752a11.7,11.7,0,0,1,2.91.252,2.992,2.992,0,0,1,1.671,1.214,3.545,3.545,0,0,1,.643,2.092m-1.5-.054q0-3.242-2.613-3.239a2.113,2.113,0,0,0-.881.089,1.072,1.072,0,0,0-.086.568v5.518c0,.191.045.3.132.347a2.169,2.169,0,0,0,.678.062q2.771,0,2.77-3.345m14.839.1a3.623,3.623,0,0,1-.984,2.568,3.172,3.172,0,0,1-2.409,1.052,3.433,3.433,0,0,1-2.555-1.069,3.9,3.9,0,0,1-.048-5.243,3.4,3.4,0,0,1,2.543-1.02,3.23,3.23,0,0,1,2.463,1.069,3.748,3.748,0,0,1,.99,2.644m-1.467.047a4.891,4.891,0,0,0-.735-2.854,1.5,1.5,0,0,0-1.3-.67,1.735,1.735,0,0,0-1.658,1.249,5.9,5.9,0,0,0-.361,2.215,4.752,4.752,0,0,0,.565,2.511,1.753,1.753,0,0,0,1.561.9q1.925,0,1.927-3.356m12.708,1.458a1.87,1.87,0,0,1-.751,1.492,2.739,2.739,0,0,1-1.814.624,3.255,3.255,0,0,1-1.64-.487.682.682,0,0,0-.126-.027c-.062,0-.1.048-.108.146a1.527,1.527,0,0,1-.048.258.145.145,0,0,1-.156.11.139.139,0,0,1-.156-.156c0-.021.009-.177.033-.47s.032-.541.032-.748v-.8c0-.2.051-.3.156-.3s.18.164.234.487a1.765,1.765,0,0,0,1.844,1.718,1.158,1.158,0,0,0,1.314-1.306,1.379,1.379,0,0,0-.313-.936,4.241,4.241,0,0,0-1.219-.81,6.275,6.275,0,0,1-1.518-.932,1.582,1.582,0,0,1-.421-1.123,1.788,1.788,0,0,1,.625-1.405A2.282,2.282,0,0,1,386.8,70.8a2.678,2.678,0,0,1,1.265.361.267.267,0,0,0,.126.047c.071,0,.119-.078.14-.227s.081-.228.186-.228a.139.139,0,0,1,.156.156.986.986,0,0,1-.016.126,5.664,5.664,0,0,0-.03.64c0,.156.017.439.047.846a.564.564,0,0,1,.018.14c0,.126-.045.188-.126.188s-.164-.092-.2-.28a2.009,2.009,0,0,0-.571-1.093,1.42,1.42,0,0,0-1.007-.412c-.753,0-1.127.4-1.127,1.2a1.279,1.279,0,0,0,.3.875,1.326,1.326,0,0,0,.344.3c.123.072.49.252,1.093.544a4.962,4.962,0,0,1,1.44.957,1.543,1.543,0,0,1,.421,1.082m.481-12.989H239.982a7.671,7.671,0,0,1-.347-2.3,7.464,7.464,0,0,1,1.289-4.256,9.679,9.679,0,0,1,3.754-3.168,13.106,13.106,0,0,1,1.858-.807c.966-.35,1.453-.66,1.453-.929a.309.309,0,0,0-.185-.18,1.422,1.422,0,0,0-.5-.062q-3.025,0-6.011,2.967a9.116,9.116,0,0,0-2.988,6.6,10.046,10.046,0,0,0,3.916,8.148,15.509,15.509,0,0,0,10.126,3.189,22.434,22.434,0,0,0,16.569-6.954h-6.527c-.693.436-1.4.851-2.131,1.223a21.817,21.817,0,0,1-9.97,2.5,12.108,12.108,0,0,1-7.687-2.32,7.7,7.7,0,0,1-2.272-2.765H389.736Zm-88.81-51.365a2.99,2.99,0,0,0-2.3-1.008q-6.294,0-21.787,20.58-2.261,3.021-3.512,4.638-2.665-5.89-4.3-10.008a47.952,47.952,0,0,1-2.121-6.213q8.4-3.109,11.784-6.094a9.014,9.014,0,0,0,3.389-6.939A6.4,6.4,0,0,0,280.228,1.8,6.837,6.837,0,0,0,275.265,0q-4.155,0-7.343,4.092a14.815,14.815,0,0,0-1.148,1.769h1.459c.2-.3.356-.615.577-.9q2.9-3.794,6.614-3.792a5.554,5.554,0,0,1,3.916,1.413,4.718,4.718,0,0,1,1.531,3.631,8.387,8.387,0,0,1-.165,1.629H0v.887H280.478a8.745,8.745,0,0,1-2.812,4.02q-3.21,2.705-11.279,5.329a3.043,3.043,0,0,0-.042-.406,23.479,23.479,0,0,1-.442-3.712,16.314,16.314,0,0,1,.344-3.212h-1.225a18.022,18.022,0,0,0-.29,3.13,32.319,32.319,0,0,0,.484,4.277v.283q-10.207,3.312-14.968,7.588a13.153,13.153,0,0,0-4.764,10.084,10.324,10.324,0,0,0,3.127,7.851,11.56,11.56,0,0,0,8.293,2.967,17.3,17.3,0,0,0,8.393-2.181A27.061,27.061,0,0,0,273,38.091a26.272,26.272,0,0,1,1.192,3.75,14.919,14.919,0,0,1,.38,3.27,19.8,19.8,0,0,1-1.449,7.362,27.859,27.859,0,0,1-4.24,7.122c-.585.693-1.195,1.344-1.824,1.966h4.887a24.507,24.507,0,0,0,4.041-13.95A28.538,28.538,0,0,0,275.464,42a22.99,22.99,0,0,0-1.531-4.883q1.934-2.543,5.326-7.023,11.9-15.654,15.171-15.655.645,0,1.9,1.333a3.512,3.512,0,0,0,2.465,1.33,3.045,3.045,0,0,0,2.218-.827,2.886,2.886,0,0,0,.848-2.161,3.494,3.494,0,0,0-.93-2.459M265.155,43.617a15.469,15.469,0,0,1-7.928,2.181,6.574,6.574,0,0,1-5.125-2.32,8.525,8.525,0,0,1-2.059-5.873,14.558,14.558,0,0,1,4.035-9.884,30.382,30.382,0,0,1,11.583-7.547q1.046,3.19,2.662,7.2t4.116,9.545a26.61,26.61,0,0,1-7.284,6.7" transform="translate(0 0)" fill="#757474"/>
  </g>
</svg>
